<svg xmlns="http://www.w3.org/2000/svg" xmlns:xlink="http://www.w3.org/1999/xlink" xmlns:sketch="http://www.bohemiancoding.com/sketch/ns" width="360px" height="247px" viewBox="0 0 360 247" version="1.1">
    <!-- Generator: Sketch 3.3.3 (12072) - http://www.bohemiancoding.com/sketch -->
    <title>mark - prod+cropped</title>
    <desc>Created with Sketch.</desc>
    <defs/>
    <g id="Assets-+-No-BGs---RD3" stroke="none" stroke-width="1" fill="none" fill-rule="evenodd" sketch:type="MSPage">
        <g id="mark---prod+cropped" sketch:type="MSArtboardGroup">
            <g id="open-edX-Copy-+-CONFERENCE-Copy-2-+-circles" sketch:type="MSLayerGroup">
                <path d="M47.9792567 175.8 C47.9792567 179.3 47.4 182.4 46.2 185.3 C44.9714719 188.1 43.3 190.6 41.2 192.6 C39.0285114 194.6 36.5 196.2 33.5 197.3 C30.5963552 198.4 27.4 199 24 199 C20.5151081 199 17.3 198.4 14.4 197.3 C11.4814028 196.2 9 194.6 6.8 192.6 C4.67760384 190.6 3 188.1 1.8 185.3 C0.601549732 182.4 0 179.3 0 175.8 C0 172.3 0.6 169.2 1.8 166.3 C3.00778475 163.5 4.7 161.1 6.8 159.2 C8.95074534 157.2 11.5 155.7 14.4 154.6 C17.3310431 153.5 20.5 153 24 153 C27.4019187 153 30.6 153.5 33.5 154.6 C36.4874823 155.7 39 157.2 41.2 159.2 C43.3016529 161.1 45 163.5 46.2 166.3 C47.377707 169.2 48 172.3 48 175.8 L47.9792567 175.8 Z M36.5911841 175.8 C36.5911841 173.9 36.3 172.2 35.7 170.5 C35.0354334 168.9 34.2 167.5 33.1 166.3 C31.975794 165.1 30.6 164.2 29.1 163.5 C27.5367252 162.8 25.8 162.5 24 162.5 C22.0916069 162.5 20.4 162.8 18.9 163.5 C17.3206492 164.2 16 165.1 14.9 166.3 C13.7528034 167.5 12.9 168.9 12.3 170.5 C11.6888475 172.2 11.4 173.9 11.4 175.8 C11.3880726 177.8 11.7 179.6 12.3 181.3 C12.9438233 182.9 13.8 184.4 14.9 185.5 C16.0034627 186.7 17.3 187.7 18.9 188.4 C20.3906732 189 22.1 189.4 24 189.4 C25.8254199 189.4 27.5 189 29.1 188.4 C30.5963776 187.7 31.9 186.7 33 185.5 C34.1642234 184.4 35 182.9 35.7 181.3 C36.2800377 179.6 36.6 177.8 36.6 175.8 L36.5911841 175.8 Z M93.7182368 167.6 C93.7182368 170.2 93.2 172.3 92.3 174.1 C91.3327524 175.8 90 177.2 88.4 178.3 C86.8107093 179.3 84.9 180.1 82.8 180.6 C80.7121761 181.1 78.5 181.4 76.2 181.4 L70.9420916 181.4 L70.9420916 197.8 L60.3007779 197.8 L60.3007779 154.2 L76.4805532 154.2 C78.8867882 154.2 81.1 154.4 83.2 154.9 C85.3275818 155.4 87.2 156.1 88.7 157.2 C90.2644849 158.2 91.5 159.6 92.4 161.3 C93.2722603 163 93.7 165.1 93.7 167.6 L93.7182368 167.6 Z M83.0769231 167.7 C83.0769231 166.6 82.9 165.8 82.5 165.1 C82.0397559 164.5 81.5 164 80.8 163.6 C80.0691408 163.2 79.3 163 78.4 162.9 C77.4865988 162.7 76.6 162.7 75.6 162.7 L70.9420916 162.7 L70.9420916 173 L75.4226448 173 C76.4183282 173 77.4 172.9 78.3 172.7 C79.1979302 172.6 80 172.3 80.7 171.9 C81.4693208 171.5 82 170.9 82.5 170.2 C82.8694921 169.6 83.1 168.7 83.1 167.7 L83.0769231 167.7 Z M104.57291 197.8 L104.57291 154.2 L134.194345 154.2 L134.194345 163.1 L114.840845 163.1 L114.840845 171.3 L133.136437 171.3 L133.136437 179.8 L114.840845 179.8 L114.840845 188.8 L135.314483 188.8 L135.314483 197.8 L104.57291 197.8 Z M178.173108 197.8 L160.437585 169.3 L160.250895 169.3 L160.499815 197.8 L150.169651 197.8 L150.169651 154.2 L162.304482 154.2 L179.977775 182.7 L180.164465 182.7 L179.915545 154.2 L190.245709 154.2 L190.245709 197.8 L178.173108 197.8 Z M223.778738 197.8 L223.778738 154.2 L253.400173 154.2 L253.400173 163.1 L234.046672 163.1 L234.046672 171.3 L252.342264 171.3 L252.342264 179.8 L234.046672 179.8 L234.046672 188.8 L254.520311 188.8 L254.520311 197.8 L223.778738 197.8 Z M310.509446 175.9 C310.509446 179.7 309.8 183 308.4 185.8 C306.931219 188.5 305 190.8 302.7 192.6 C300.355588 194.4 297.7 195.7 294.8 196.6 C291.819716 197.4 288.8 197.8 285.8 197.8 L269.375478 197.8 L269.375478 154.2 L285.306334 154.2 C288.417845 154.2 291.5 154.5 294.5 155.3 C297.544897 156 300.2 157.2 302.6 158.8 C304.970996 160.5 306.9 162.7 308.3 165.5 C309.783437 168.3 310.5 171.8 310.5 175.9 L310.509446 175.9 Z M299.432523 175.9 C299.432523 173.4 299 171.4 298.2 169.7 C297.410047 168.1 296.3 166.8 295 165.9 C293.634763 164.9 292.1 164.2 290.4 163.8 C288.656369 163.4 286.9 163.2 285.1 163.2 L279.767873 163.2 L279.767873 188.7 L284.808495 188.7 C286.716888 188.7 288.6 188.5 290.3 188 C292.079031 187.6 293.6 186.9 295 185.9 C296.331406 184.9 297.4 183.6 298.2 182 C299.028032 180.3 299.4 178.3 299.4 175.9 L299.432523 175.9 Z M346.86949 197.8 L337.223855 182.4 L327.951599 197.8 L315.256698 197.8 L330.689715 174.8 L316.501296 154.2 L329.320657 154.2 L337.535004 167.7 L345.624892 154.2 L358.008643 154.2 L344.069144 174.8 L360 197.8 L346.86949 197.8 Z" id="open-edX-Copy" fill="#3D3E3F" sketch:type="MSShapeGroup"/>
                <path d="M25.8114554 241.7 C24.6874673 243.3 23.2 244.5 21.4 245.4 C19.6429234 246.4 17.5 246.9 15 246.9 C12.8053613 246.9 10.8 246.5 9 245.8 C7.13861782 245 5.6 244 4.2 242.7 C2.91030522 241.3 1.9 239.8 1.1 237.9 C0.374657089 236.1 0 234.1 0 231.9 C0 229.7 0.4 227.6 1.1 225.8 C1.90675985 224 3 222.4 4.3 221.1 C5.66675189 219.8 7.3 218.8 9.1 218.1 C10.9588387 217.4 13 217 15.1 217 C16.09704 217 17.1 217.1 18.1 217.3 C19.0541846 217.5 20 217.7 20.9 218.1 C21.8239982 218.5 22.7 219 23.4 219.5 C24.1522469 220.1 24.8 220.7 25.3 221.4 L22.1986545 223.8 C21.5028523 222.9 20.5 222.1 19.2 221.4 C17.9770234 220.8 16.6 220.5 15.1 220.5 C13.474401 220.5 12 220.8 10.7 221.4 C9.3330624 222 8.2 222.8 7.3 223.9 C6.32908728 224.9 5.6 226.1 5.1 227.5 C4.58959269 228.9 4.3 230.3 4.3 231.9 C4.33536109 233.5 4.6 235 5.1 236.4 C5.5730824 237.8 6.3 239 7.2 240 C8.12880667 241.1 9.3 241.9 10.6 242.5 C11.9021785 243 13.4 243.3 15 243.3 C16.6188922 243.3 18.1 243 19.4 242.4 C20.7000177 241.7 21.8 240.8 22.6 239.6 L25.8114554 241.7 Z M68.0812261 231.9 C68.0812261 234.1 67.7 236.1 66.9 237.9 C66.1744662 239.8 65.1 241.3 63.8 242.7 C62.4479261 244 60.9 245 59 245.8 C57.1625296 246.5 55.2 246.9 53 246.9 C50.8200553 246.9 48.8 246.5 47 245.8 C45.1533119 245 43.6 244 42.2 242.7 C40.8915473 241.3 39.8 239.8 39.1 237.9 C38.3492089 236.1 38 234.1 38 231.9 C37.9745518 229.7 38.3 227.6 39.1 225.8 C39.8478597 224 40.9 222.4 42.2 221.1 C43.5677095 219.8 45.2 218.8 47 218.1 C48.8196541 217.4 50.8 217 53 217 C55.1554381 217 57.2 217.4 59 218.1 C60.8556335 218.8 62.4 219.8 63.8 221.1 C65.1240883 222.4 66.2 224 66.9 225.8 C67.6998787 227.6 68.1 229.7 68.1 231.9 L68.0812261 231.9 Z M63.7860072 231.9 C63.7860072 230.3 63.5 228.9 63 227.5 C62.514834 226.1 61.8 224.9 60.9 223.9 C59.9189675 222.8 58.8 222 57.5 221.4 C56.1389053 220.8 54.6 220.5 53 220.5 C51.3552878 220.5 49.9 220.8 48.6 221.4 C47.2273297 222 46.1 222.8 45.2 223.9 C44.2568066 224.9 43.5 226.1 43 227.5 C42.5240023 228.9 42.3 230.3 42.3 231.9 C42.2697707 233.5 42.5 235 43 236.3 C43.5409439 237.7 44.3 239 45.2 240 C46.1368104 241 47.3 241.8 48.6 242.4 C49.8834206 243 51.4 243.3 53 243.3 C54.6202057 243.3 56.1 243 57.4 242.4 C58.7816156 241.8 59.9 241 60.9 240 C61.792281 239 62.5 237.7 63 236.3 C63.5317756 235 63.8 233.5 63.8 231.9 L63.7860072 231.9 Z M100.779304 240.4 L100.859589 240.4 L100.859589 217.7 L104.83367 217.7 L104.83367 246.1 L99.8158909 246.1 L84.802696 222.9 L84.7224115 222.9 L84.7224115 246.1 L80.7483305 246.1 L80.7483305 217.7 L85.9266785 217.7 L100.779304 240.4 Z M124.632711 246.1 L120.65863 246.1 L120.65863 217.7 L138.401497 217.7 L138.401497 221.2 L124.632711 221.2 L124.632711 230 L137.518368 230 L137.518368 233.5 L124.632711 233.5 L124.632711 246.1 Z M158.026588 242.6 L172.879214 242.6 L172.879214 246.1 L154.052507 246.1 L154.052507 217.7 L172.277081 217.7 L172.277081 221.2 L158.026588 221.2 L158.026588 229.7 L171.434094 229.7 L171.434094 233.1 L158.026588 233.1 L158.026588 242.6 Z M193.30269 246.1 L189.328609 246.1 L189.328609 217.7 L198.440896 217.7 C199.805738 217.7 201.1 217.9 202.3 218.1 C203.565727 218.4 204.6 218.9 205.6 219.5 C206.489418 220.1 207.2 220.9 207.8 221.9 C208.289126 222.9 208.6 224.1 208.6 225.6 C208.556738 227.7 207.9 229.4 206.6 230.6 C205.345353 231.9 203.7 232.7 201.7 233.1 L209.600436 246.1 L204.783368 246.1 L197.557766 233.5 L193.30269 233.5 L193.30269 246.1 Z M193.30269 230.2 L197.878904 230.2 C198.815561 230.2 199.7 230.1 200.5 229.9 C201.290998 229.8 202 229.5 202.6 229.1 C203.197753 228.8 203.7 228.3 204 227.7 C204.368567 227.2 204.5 226.4 204.5 225.6 C204.542515 224.7 204.4 224 204 223.4 C203.672765 222.9 203.2 222.4 202.6 222.1 C202.060384 221.7 201.4 221.5 200.6 221.3 C199.832489 221.2 199 221.1 198.2 221.1 L193.30269 221.1 L193.30269 230.2 Z M229.100641 242.6 L243.953267 242.6 L243.953267 246.1 L225.12656 246.1 L225.12656 217.7 L243.351133 217.7 L243.351133 221.2 L229.100641 221.2 L229.100641 229.7 L242.508146 229.7 L242.508146 233.1 L229.100641 233.1 L229.100641 242.6 Z M280.433635 240.4 L280.51392 240.4 L280.51392 217.7 L284.488001 217.7 L284.488001 246.1 L279.470222 246.1 L264.457027 222.9 L264.376742 222.9 L264.376742 246.1 L260.402661 246.1 L260.402661 217.7 L265.581009 217.7 L280.433635 240.4 Z M324.121765 241.7 C322.997777 243.3 321.5 244.5 319.7 245.4 C317.953233 246.4 315.8 246.9 313.3 246.9 C311.115671 246.9 309.1 246.5 307.3 245.8 C305.448927 245 303.9 244 302.5 242.7 C301.220615 241.3 300.2 239.8 299.4 237.9 C298.684966 236.1 298.3 234.1 298.3 231.9 C298.310309 229.7 298.7 227.6 299.5 225.8 C300.217069 224 301.3 222.4 302.6 221.1 C303.977061 219.8 305.6 218.8 307.4 218.1 C309.269148 217.4 311.3 217 313.4 217 C314.407349 217 315.4 217.1 316.4 217.3 C317.364494 217.5 318.3 217.7 319.2 218.1 C320.134308 218.5 321 219 321.7 219.5 C322.462556 220.1 323.1 220.7 323.6 221.4 L320.508964 223.8 C319.813162 222.9 318.8 222.1 317.6 221.4 C316.287333 220.8 314.9 220.5 313.4 220.5 C311.78471 220.5 310.3 220.8 309 221.4 C307.643372 222 306.5 222.8 305.6 223.9 C304.639397 224.9 303.9 226.1 303.4 227.5 C302.899902 228.9 302.6 230.3 302.6 231.9 C302.64567 233.5 302.9 235 303.4 236.4 C303.883392 237.8 304.6 239 305.5 240 C306.439116 241.1 307.6 241.9 308.9 242.5 C310.212488 243 311.7 243.3 313.3 243.3 C314.929202 243.3 316.4 243 317.7 242.4 C319.010327 241.7 320.1 240.8 321 239.6 L324.121765 241.7 Z M343.300831 242.6 L358.153457 242.6 L358.153457 246.1 L339.32675 246.1 L339.32675 217.7 L357.551324 217.7 L357.551324 221.2 L343.300831 221.2 L343.300831 229.7 L356.708337 229.7 L356.708337 233.1 L343.300831 233.1 L343.300831 242.6 Z" id="CONFERENCE-Copy-2" fill="#3D3E3F" sketch:type="MSShapeGroup"/>
                <g id="circles" transform="translate(5.000000, 0.000000)" sketch:type="MSShapeGroup">
                    <g id="pink" transform="translate(0.625729, 0.552239)">
                        <ellipse id="pink-oval" fill="#E767A9" cx="67.5" cy="67.5" rx="67" ry="67"/>
                        <g id="Shape-+-Shape-+-Shape" fill="#FFFFFF">
                            <path d="M93.6 63.9 C93.6 61.5 92 59.5 89.7 59 L67.8 53.9 C67.4 53.8 67 53.8 66.7 53.8 C66.3 53.8 65.9 53.8 65.5 53.9 L43.6 59 C41.3 59.5 39.7 61.5 39.7 63.9 C39.7 66.3 41.3 68.3 43.6 68.8 L48.1 69.9 L48.1 84.1 C48.1 88.6 53.2 92.5 66.7 92.5 C80.1 92.5 85.2 88.6 85.2 84.1 L85.2 69.9 L89.7 68.8 C92 68.3 93.6 66.3 93.6 63.9 L93.6 63.9 M81.8 84.1 C81.8 86 76.8 89.2 66.7 89.2 C56.5 89.2 51.5 86 51.5 84.1 L51.5 70.6 L65.5 73.9 C65.9 74 66.3 74 66.7 74 C67 74 67.4 74 67.8 73.9 L81.8 70.6 L81.8 84.1 M67 70.6 C66.9 70.6 66.8 70.6 66.7 70.6 C66.5 70.6 66.4 70.6 66.3 70.6 L44.4 65.5 C43.6 65.4 43.1 64.7 43.1 63.9 C43.1 63.1 43.6 62.4 44.4 62.2 L66.3 57.2 C66.4 57.2 66.5 57.1 66.7 57.1 C66.8 57.1 66.9 57.2 67 57.2 L88.9 62.2 C89.7 62.4 90.2 63.1 90.2 63.9 C90.2 64.7 89.7 65.4 88.9 65.5 L67 70.6 " id="Shape"/>
                            <path d="M88.6 72.3 L88.6 87.5 C88.6 88.4 89.3 89.2 90.2 89.2 C91.2 89.2 91.9 88.4 91.9 87.5 L91.9 72.3 C91.9 71.4 91.2 70.6 90.2 70.6 C89.3 70.6 88.6 71.4 88.6 72.3 L88.6 72.3 Z" id="Shape"/>
                            <path d="M90.2 90.9 C88.4 90.9 86.9 95.7 86.9 97.6 C86.9 99.5 88.4 101 90.2 101 C92.1 101 93.6 99.5 93.6 97.6 C93.6 95.7 92.1 90.9 90.2 90.9 L90.2 90.9 Z" id="Shape"/>
                        </g>
                        <path d="M53.8787892 42.7 C55.1452491 41.4 55.1 38.8 55.1 38.8 C55.119403 38.8 55.1 41.4 56.4 42.7 C57.6264767 43.9 60.2 43.9 60.2 43.9 C60.1852426 43.9 57.6 43.9 56.4 45.2 C55.0935569 46.4 55.1 49 55.1 49 C55.119403 49 55.1 46.4 53.9 45.2 C52.6123293 43.9 50.1 43.9 50.1 43.9 C50.0535634 43.9 52.6 43.9 53.9 42.7 Z M74.7859576 29.5 C75.7358025 28.6 75.7 26.7 75.7 26.7 C75.7164179 26.7 75.7 28.6 76.6 29.5 C77.5967232 30.5 79.5 30.5 79.5 30.5 C79.5157976 30.5 77.6 30.5 76.6 31.4 C75.6970333 32.4 75.7 34.3 75.7 34.3 C75.7164179 34.3 75.7 32.4 74.8 31.4 C73.8361126 30.5 71.9 30.5 71.9 30.5 C71.9170382 30.5 73.8 30.5 74.8 29.5 Z M65.7957957 37.6 C67.6954856 35.7 67.7 31.8 67.7 31.8 C67.6567164 31.8 67.6 35.7 69.5 37.6 C71.417327 39.5 75.3 39.4 75.3 39.4 C75.2554759 39.4 71.4 39.4 69.5 41.3 C67.6179472 43.2 67.7 47 67.7 47 C67.6567164 47 67.7 43.2 65.8 41.3 C63.8961059 39.4 60.1 39.4 60.1 39.4 C60.057957 39.4 63.9 39.5 65.8 37.6 Z M78.0578937 45.4 C79.3243536 44.1 79.3 41.5 79.3 41.5 C79.2985075 41.5 79.3 44.1 80.5 45.4 C81.8055812 46.6 84.4 46.6 84.4 46.6 C84.3643471 46.6 81.8 46.6 80.5 47.8 C79.2726613 49.1 79.3 51.7 79.3 51.7 C79.2985075 51.7 79.3 49.1 78.1 47.8 C76.7914338 46.6 74.2 46.6 74.2 46.6 C74.2326678 46.6 76.8 46.6 78.1 45.4 Z" id="Rectangle-19-Copy-7" fill="#FFFFFF"/>
                    </g>
                    <g id="gray" transform="translate(110.297371, 0.656716)">
                        <ellipse id="gray-oval" fill="#9DB1B9" cx="67.1" cy="67.4" rx="67" ry="67"/>
                        <path d="M62.4477609 57.7 C47.2880194 57.7 35 66.9 35 78.2 C35 85.3 39.8 91.6 47 95.3 C47.0221193 95.3 47 95.3 47 95.4 C47.0083954 98.5 44.7 101.8 43.7 103.5 L43.7043712 103.5 C43.6237434 103.7 43.6 103.9 43.6 104.1 C43.5774253 105 44.3 105.7 45.1 105.7 C45.2929103 105.7 45.6 105.6 45.6 105.7 C50.9299942 104.8 56 99.9 57.2 98.4 C58.8675435 98.7 60.6 98.8 62.4 98.8 C77.6040713 98.8 89.9 89.6 89.9 78.2 C89.8955217 66.9 77.6 57.7 62.4 57.7 Z M62.4477609 95.4 C60.8746611 95.4 59.3 95.3 57.7 95 C57.4848626 95 57.3 95 57.2 95 C56.1347759 95 55.2 95.5 54.5 96.3 C53.7674065 97.2 51.7 99.1 49.2 100.6 C49.8784019 99.1 50.4 97.4 50.4 95.6 C50.4479429 95.5 50.5 95.4 50.5 95.3 C50.4530894 94 49.7 92.8 48.6 92.2 C42.225623 89 38.4 83.7 38.4 78.2 C38.4309701 68.8 49.2 61.1 62.4 61.1 C75.6878745 61.1 86.5 68.8 86.5 78.2 C86.4645516 87.7 75.7 95.4 62.4 95.4 Z M80.7391786 29.3 C90.5196569 29.3 98.4 35.3 98.4 42.6 C98.4474114 47.2 95.4 51.2 90.7 53.6 C90.6912054 53.6 90.7 53.6 90.7 53.7 C90.7000595 55.6 92.2 57.8 92.8 58.9 L92.8316881 58.9 C92.883706 59 92.9 59.2 92.9 59.3 C92.9135886 59.8 92.5 60.3 91.9 60.3 C91.8068241 60.3 91.6 60.3 91.6 60.3 C88.1699958 59.7 84.9 56.5 84.2 55.6 C83.0489962 55.8 81.9 55.9 80.7 55.9 C70.9609138 55.9 63 49.9 63 42.6 C63.0309458 35.3 71 29.3 80.7 29.3 Z M80.7391786 53.7 C81.7540817 53.7 82.8 53.6 83.8 53.4 C83.9410484 53.4 84 53.4 84.2 53.4 C84.8120721 53.4 85.4 53.7 85.9 54.2 C86.3394072 54.8 87.7 56.1 89.3 57 C88.8484424 56 88.5 54.9 88.5 53.8 C88.4809966 53.7 88.5 53.6 88.5 53.6 C88.4776763 52.7 88.9 52 89.7 51.6 C93.7857191 49.5 96.2 46.1 96.2 42.6 C96.2338823 36.5 89.3 31.5 80.7 31.5 C72.1971698 31.5 65.2 36.5 65.2 42.6 C65.2444749 48.7 72.2 53.7 80.7 53.7 L80.7391786 53.7 Z" id="Shape" fill="#FFFFFF"/>
                        <path d="M62.7026294 70.3 C58.836084 70.3 55.7 73.4 55.7 77.2 C55.7026294 79.7 58 82.4 58.9 84.8 C60.1788112 88.2 60 90.3 62.7 90.3 C65.4071749 90.3 65.2 88.3 66.5 84.8 C67.3582658 82.4 69.7 79.7 69.7 77.2 C69.7026294 73.4 66.6 70.3 62.7 70.3 L62.7026294 70.3 Z M64.352084 87.3 L61.1969931 87.7 C61.0843567 87.4 61 87 60.8 86.5 C60.8145385 86.5 60.8 86.5 60.8 86.5 L64.7485385 86 C64.6925385 86.2 64.6 86.4 64.6 86.6 C64.4971749 86.9 64.4 87.1 64.4 87.3 L64.352084 87.3 Z M60.6255385 85.9 C60.5097203 85.5 60.4 85.1 60.2 84.7 L65.1761749 84.7 C65.0979022 84.9 65 85.2 65 85.4 L60.6255385 85.9 L60.6255385 85.9 Z M62.7026294 89.1 C62.0579931 89.1 61.8 89 61.4 88.3 L64.1287203 88 C63.7379931 89 63.5 89.1 62.7 89.1 L62.7026294 89.1 Z M65.6757203 83.5 L59.7365385 83.5 C59.4196294 82.8 59 82.1 58.7 81.5 C57.8331749 80 57 78.5 57 77.2 C56.9753567 74.1 59.5 71.6 62.7 71.6 C65.8609022 71.6 68.4 74.1 68.4 77.2 C68.4299022 78.5 67.6 80 66.7 81.5 C66.368084 82.1 66 82.8 65.7 83.5 Z M63.696767 68 L63.696767 65.9 C63.696767 65.7 63.4 65.6 63.1 65.6 C62.7516449 65.6 62.5 65.7 62.5 65.9 L62.4790495 68 C62.4790495 68.2 62.8 68.3 63.1 68.3 C63.4241717 68.3 63.7 68.2 63.7 68 Z M53.0975183 73.3 L51.0782983 73.3 C50.8708221 73.3 50.7 73.6 50.7 74 C50.7026294 74.3 50.9 74.6 51.1 74.6 L53.0975183 74.6 C53.3049944 74.6 53.5 74.3 53.5 74 C53.4731871 73.6 53.3 73.3 53.1 73.3 Z M57.1200004 69.5 L56.1103904 67.8 C56.0066524 67.6 55.7 67.6 55.4 67.8 C55.1040562 67.9 55 68.2 55.1 68.4 L56.0654261 70.1 C56.1691642 70.3 56.5 70.3 56.8 70.2 C57.0717604 70 57.2 69.7 57.1 69.5 Z M69.8045344 70.1 L71.2323385 68.7 C71.3790463 68.5 71.3 68.2 71.1 68 C70.8296742 67.7 70.5 67.7 70.4 67.8 L68.943478 69.2 C68.7967702 69.4 68.9 69.7 69.1 69.9 C69.3461424 70.2 69.7 70.2 69.8 70.1 Z M74.0975183 73.3 L72.0782983 73.3 C71.8708221 73.3 71.7 73.6 71.7 74 C71.7026294 74.3 71.9 74.6 72.1 74.6 L74.0975183 74.6 C74.3049944 74.6 74.5 74.3 74.5 74 C74.4731871 73.6 74.3 73.3 74.1 73.3 Z" id="Shape-Copy" fill="#FFFFFF"/>
                    </g>
                    <g id="blue" transform="translate(220.000000, 0.000000)" fill="#43A6F0">
                        <ellipse id="blue-oval" cx="67.5" cy="67.8" rx="67" ry="67"/>
                    </g>
                    <g id="nut-4-+-Rectangle-22-Copy-2" fill="#FFFFFF">
                        <path d="M287.2 29.3 L281.4 32.9 L281.3 39.6 L287.4 43.1 L293.1 39.7 L293.4 32.8 L287.2 29.3 ZM289.4 37.5 C288.7 38.7 287.2 39.1 286 38.4 C284.8 37.7 284.4 36.2 285.1 35 C285.7 33.8 287.3 33.4 288.5 34.1 C289.7 34.8 290.1 36.3 289.4 37.5 Z" id="nut-4"/>
                        <path d="M282.4 51.4 C280.1 52.5 278.1 53.8 278.1 53.8 C278.1 53.8 275.2 58.8 275.2 61.8 C275.2 66.9 278.6 71.2 283.3 72.8 C283.1 73.4 282.9 74.1 282.9 74.7 L281.5 98.3 C281.3 101.6 283.7 105.2 286.9 106.2 L287.5 106.4 C287.4 106.4 288.2 106.2 288.2 106.2 C291.4 105.2 293.8 101.6 293.6 98.3 L292.2 74.7 C292.2 74.1 292 73.4 291.8 72.8 L291.8 72.8 C296.5 71.2 299.9 66.9 299.9 61.8 C299.9 58.4 297 53.8 297 53.8 C297 53.8 295 52.6 292.6 51.5 L292.5 52.4 L293.3 62.7 L287.5 66.3 L281.8 62.7 L282.6 52.4 L282.4 51.4 L282.4 51.4 ZM290.2 97.6 L287.5 96.3 L284.9 97.6 L284.9 100.6 L287.5 101.9 L290.2 100.6 L290.2 97.6 Z" id="Rectangle-22-Copy-2"/>
                    </g>
                    <path d="M232.774633 106.9 C240.583952 95.9 245.2 82.5 245.2 68 C245.177268 53.5 240.6 40.1 232.8 29.2 C224.965312 40.1 220.4 53.5 220.4 68 C220.371997 82.5 225 95.9 232.8 106.9 Z" id="intersection-2" fill="#2973AE"/>
                    <path d="M122.774633 106.9 C130.583952 95.9 135.2 82.5 135.2 68 C135.177268 53.5 130.6 40.1 122.8 29.2 C114.965312 40.1 110.4 53.5 110.4 68 C110.371997 82.5 115 95.9 122.8 106.9 Z" id="intersection-1" fill="#8E477A"/>
                </g>
            </g>
        </g>
    </g>
</svg>
