<?xml version="1.0" encoding="UTF-8"?>
<!DOCTYPE svg PUBLIC "-//W3C//DTD SVG 1.1//EN" "http://www.w3.org/Graphics/SVG/1.1/DTD/svg11.dtd">
<!-- Creator: CorelDRAW X7 -->
<svg xmlns="http://www.w3.org/2000/svg" xml:space="preserve" width="73mm" height="20mm" version="1.1" style="shape-rendering:geometricPrecision; text-rendering:geometricPrecision; image-rendering:optimizeQuality; fill-rule:evenodd; clip-rule:evenodd"
viewBox="0 0 7300 2000"
 xmlns:xlink="http://www.w3.org/1999/xlink">
 <defs>
  <style type="text/css">
   <![CDATA[
    .fil0 {fill:none}
    .fil2 {fill:#0090C1}
    .fil1 {fill:#67CDDC}
    .fil3 {fill:#3B3B3D;fill-rule:nonzero}
   ]]>
  </style>
 </defs>
 <g id="Layer_x0020_1">
  <metadata id="CorelCorpID_0Corel-Layer"/>
  <g id="_1004143824">
   <polygon class="fil0" points="893,0 1326,250 1759,500 1759,1000 1759,1500 1326,1750 893,2000 460,1750 27,1500 27,1000 27,500 460,250 "/>
   <polygon class="fil0" points="893,231 227,615 227,1385 893,1769 1559,1385 1559,615 "/>
   <path class="fil1" d="M893 462l-466 269 0 538 466 269 466 -269 0 -538 -466 -269zm0 231l-266 153 0 308 266 153 266 -153 0 -308 -266 -153z"/>
   <polygon class="fil0" points="893,693 627,846 627,1154 893,1307 1159,1154 1159,846 "/>
   <polygon class="fil0" points="893,924 827,962 827,1038 893,1076 959,1038 959,962 "/>
   <path class="fil2" d="M893 0l-866 500 0 1000 866 500 866 -500 0 -1000 -866 -500zm-666 1385l0 -770 666 -384 666 384 0 770 -666 384 -666 -384z"/>
   <polygon class="fil1" points="27,1500 893,2000 1759,1500 1559,1385 893,1769 227,1385 "/>
   <polygon class="fil2" points="1359,731 1359,1269 1159,1154 1159,846 893,693 627,846 627,1154 427,1269 427,731 893,462 "/>
   <polygon class="fil2" points="893,924 827,962 827,1038 893,1076 959,1038 959,962 "/>
   <path class="fil3" d="M2603 1261l-87 0 0 -66 -2 0c-37,52 -90,78 -158,78 -57,0 -102,-13 -134,-38 -35,-27 -52,-68 -52,-121 0,-57 27,-101 82,-131 43,-24 95,-36 154,-36 42,0 75,1 100,2 0,-45 -9,-78 -28,-99 -19,-22 -52,-33 -98,-33 -57,0 -106,17 -147,52l-5 -80c53,-32 109,-48 167,-48 72,0 124,18 157,53 31,34 47,86 47,157l0 210c0,47 2,80 4,100zm-97 -198l0 -44c-7,0 -17,-1 -30,-1 -13,-1 -23,-1 -30,-1 -117,0 -176,32 -176,97 0,25 10,46 31,62 18,14 40,21 64,21 44,0 79,-13 105,-38 24,-24 36,-56 36,-96z"/>
   <path id="1" class="fil3" d="M3213 998c0,76 -17,140 -52,189 -39,57 -94,86 -166,86 -79,0 -136,-28 -169,-82l-2 0 0 279 -94 0 0 -717 90 0 0 72 2 0c36,-56 94,-84 172,-84 70,0 125,26 165,77 36,47 54,107 54,180zm-100 7c0,-52 -10,-95 -31,-129 -25,-40 -61,-59 -108,-59 -48,0 -85,20 -113,59 -25,36 -37,80 -37,132 0,48 11,91 35,126 28,42 66,63 114,63 46,0 82,-22 108,-66 22,-37 32,-79 32,-126z"/>
   <path id="2" class="fil3" d="M3793 998c0,76 -17,140 -51,189 -39,57 -95,86 -166,86 -80,0 -136,-28 -170,-82l-2 0 0 279 -94 0 0 -717 90 0 0 72 2 0c37,-56 94,-84 173,-84 70,0 125,26 164,77 36,47 54,107 54,180zm-99 7c0,-52 -11,-95 -32,-129 -25,-40 -60,-59 -107,-59 -48,0 -86,20 -113,59 -26,36 -38,80 -38,132 0,48 12,91 36,126 27,42 65,63 114,63 45,0 81,-22 108,-66 21,-37 32,-79 32,-126z"/>
   <path id="3" class="fil3" d="M4165 1114c0,51 -18,91 -55,120 -33,26 -74,39 -123,39 -58,0 -104,-10 -139,-29l5 -83c37,24 76,36 117,36 25,0 46,-5 63,-16 21,-13 32,-32 32,-57 0,-25 -19,-47 -57,-68 -35,-19 -71,-38 -106,-57 -38,-28 -57,-61 -57,-102 0,-50 17,-90 52,-118 32,-25 74,-38 127,-38 33,0 72,7 117,20l-8 81c-10,-6 -26,-12 -49,-17 -21,-6 -38,-8 -50,-8 -25,0 -46,5 -62,15 -18,11 -27,26 -27,46 0,28 19,52 57,71 35,19 71,37 106,55 38,27 57,64 57,110z"/>
   <path id="4" class="fil3" d="M4679 1028l-363 0c0,49 17,89 51,122 32,31 71,47 116,47 29,0 59,-6 93,-18 29,-11 50,-22 64,-33l0 94c-61,22 -114,33 -160,33 -88,0 -154,-26 -199,-76 -43,-47 -64,-114 -64,-199 0,-76 22,-137 65,-185 44,-48 102,-72 173,-72 149,0 224,96 224,287zm-100 -70c0,-40 -11,-74 -33,-100 -23,-27 -54,-41 -93,-41 -42,0 -76,15 -100,46 -20,25 -33,57 -37,95l263 0z"/>
   <path id="5" class="fil3" d="M5504 1261l-93 0 0 -303c0,-94 -30,-141 -91,-141 -45,0 -79,19 -103,58 -20,34 -30,77 -30,130l0 256 -94 0 0 -303c0,-94 -30,-141 -90,-141 -45,0 -79,19 -103,58 -20,34 -31,77 -31,130l0 256 -93 0 0 -508 87 0 0 74 2 0c35,-57 89,-86 162,-86 70,0 118,33 144,99 16,-33 40,-59 74,-77 28,-15 55,-22 83,-22 117,0 176,65 176,194l0 326z"/>
   <path id="6" class="fil3" d="M6117 998c0,76 -17,140 -51,189 -40,57 -95,86 -167,86 -79,0 -137,-28 -173,-84l-2 0 0 72 -90 0 0 -747 94 0 0 309 2 0c33,-55 90,-82 168,-82 70,0 125,26 165,77 36,47 54,107 54,180zm-100 7c0,-52 -10,-95 -31,-129 -25,-40 -61,-59 -108,-59 -48,0 -85,20 -113,59 -25,36 -37,80 -37,132 0,48 11,91 35,126 28,42 66,63 114,63 46,0 82,-22 108,-66 22,-37 32,-79 32,-126z"/>
   <polygon id="7" class="fil3" points="6320,1261 6227,1261 6227,514 6320,514 "/>
   <path id="8" class="fil3" d="M6892 1028l-363 0c0,49 17,89 51,122 32,31 71,47 116,47 28,0 59,-6 93,-18 29,-11 50,-22 64,-33l0 94c-61,22 -115,33 -161,33 -87,0 -153,-26 -198,-76 -43,-47 -64,-114 -64,-199 0,-76 22,-137 65,-185 44,-48 102,-72 173,-72 149,0 224,96 224,287zm-100 -70c0,-40 -11,-74 -33,-100 -23,-27 -54,-41 -93,-41 -42,0 -76,15 -100,46 -20,25 -33,57 -37,95l263 0z"/>
   <path id="9" class="fil3" d="M7273 832c-14,-6 -32,-9 -52,-9 -42,0 -75,18 -100,56 -25,37 -38,87 -38,151l0 231 -94 0 0 -508 88 0 0 78 2 0c13,-26 31,-48 56,-65 24,-16 50,-25 76,-25 18,0 39,2 62,7l0 84z"/>
  </g>
 </g>
</svg>
