<?xml version="1.0" encoding="UTF-8" standalone="no"?>
<svg
   xmlns:dc="http://purl.org/dc/elements/1.1/"
   xmlns:cc="http://creativecommons.org/ns#"
   xmlns:rdf="http://www.w3.org/1999/02/22-rdf-syntax-ns#"
   xmlns:svg="http://www.w3.org/2000/svg"
   xmlns="http://www.w3.org/2000/svg"
   viewBox="0 0 805.88 118.70667"
   height="118.70667"
   width="805.88"
   xml:space="preserve"
   id="svg2"
   version="1.1"><metadata
     id="metadata8"><rdf:RDF><cc:Work
         rdf:about=""><dc:format>image/svg+xml</dc:format><dc:type
           rdf:resource="http://purl.org/dc/dcmitype/StillImage" /></cc:Work></rdf:RDF></metadata><defs
     id="defs6"><clipPath
       id="clipPath20"
       clipPathUnits="userSpaceOnUse"><path
         id="path18"
         d="M 0,0 V 890 H 6044 V 0 Z" /></clipPath><clipPath
       id="clipPath26"
       clipPathUnits="userSpaceOnUse"><path
         id="path24"
         d="m 198.883,557.383 c -1.11,21.23 46.933,144.14 198.89,144.14 145.25,0 181.563,-144.14 181.563,-144.14 z m 511.738,-2.235 -5.289,16.438 c 0.106,13.547 -2.633,28.504 -8.559,43.41 -3.691,9.234 -8.281,17.664 -13.472,25.074 l -3.961,12.285 23.453,73.754 -46.918,55.864 -78.219,-13.414 -5.543,2.843 c -10.609,12.621 -26.738,23.828 -46.328,30.953 -8.988,3.286 -17.957,5.372 -26.637,6.465 l -8.64,4.438 -35.75,72.621 -75.981,4.465 -46.929,-64.785 -16.11,-5.778 c -10.09,-0.715 -20.718,-2.843 -31.386,-6.574 -11.332,-3.957 -21.524,-9.301 -30.211,-15.473 l -12.797,-4.589 -77.102,29.043 -54.746,-48.036 12.285,-81.574 -6.179,-11.762 C 110.32,675.637 105.316,669.766 100.754,663.219 89.7227,647.441 83.1211,630.492 81.0352,615.062 L 75.9688,605.434 6.69531,571.914 0,495.938 68.1562,445.645 c 0,0 506.7418,6.152 508.3828,0 6.707,-25.125 -65.918,-148.602 -177.66,-148.602 -111.734,0 -156.418,63.68 -156.418,63.68 H 94.9766 l -29.0586,-77.071 51.391,-58.117 77.101,12.297 13.942,-7.684 c 6.484,-6.339 14.074,-12.246 22.648,-17.375 11.336,-6.828 23.059,-11.433 34.344,-14.043 l 16.222,-8.945 37.989,-69.265 h 77.101 l 41.34,58.085 18.692,5.614 c 11.425,-0.117 23.738,1.633 36.187,5.449 11.855,3.633 22.547,8.777 31.641,14.902 l 14.035,4.2 72.625,-23.458 52.512,49.141 -8.93,76.008 3.34,6.426 c 6.918,6.804 13.355,14.929 18.914,24.16 8.476,14.109 13.679,28.855 15.64,42.574 l 10.141,19.563 65.93,32.402 5.578,75.976 z" /></clipPath><linearGradient
       id="linearGradient32"
       spreadMethod="pad"
       gradientTransform="matrix(-3.25e-5,-743.51,-743.51,3.25e-5,387.153,909.336)"
       gradientUnits="userSpaceOnUse"
       y2="0"
       x2="1"
       y1="0"
       x1="0"><stop
         id="stop28"
         offset="0"
         style="stop-opacity:1;stop-color:#7697d5" /><stop
         id="stop30"
         offset="1"
         style="stop-opacity:1;stop-color:#5775c3" /></linearGradient><clipPath
       id="clipPath42"
       clipPathUnits="userSpaceOnUse"><path
         id="path40"
         d="m 984.059,333.918 c 0,0 -117.149,91.492 -58.418,224.324 61.445,138.996 193.289,133.235 212.249,123.633 z m -36.942,-196.848 71.753,-25.617 56.29,47.192 21.99,1.343 c 13.35,-3.718 28.92,-4.929 45.3,-2.91 10.68,1.379 20.69,3.988 29.72,7.551 l 7.24,0.441 65.87,-38.898 66.19,28.164 7.91,75.906 9.53,11.156 c 9.27,5.829 18.3,13.536 26.43,22.899 8.52,9.824 15.09,20.398 19.61,30.91 l 12.69,14.813 69.86,14.328 31.17,70.496 -47.99,62.754 -1.62,18.468 c 2.18,11.372 2.68,23.969 1.04,37.082 -1.23,9.922 -3.56,19.262 -6.74,27.743 l -1.39,15.863 42.42,65.531 -32.36,70.492 -82.26,4.61 -59.64,-134.883 c 0,0 40.17,-66.641 -4.99,-168.82 -45.19,-102.18 -187.48,-118.696 -207.77,-102.395 -4.96,3.984 205.58,464.961 205.58,464.961 l -18.44,82.676 -72.19,24.594 -58.66,-49.797 -10.86,-0.743 c -14.97,4.34 -33.12,5.145 -52.03,1.438 -7.82,-1.523 -15.21,-3.723 -22.08,-6.473 l -13.27,-0.894 -69.643,44.23 -66.082,-30.64 -4.597,-82.282 -9.352,-9.851 c -9.18,-5.426 -18.18,-12.59 -26.391,-21.36 -7.718,-8.257 -13.972,-17.109 -18.703,-26.039 l -11.773,-12.418 -78.266,-16.707 -26.629,-71.308 51.973,-62.051 0.563,-9.715 c -2.504,-8.363 -4.231,-17.422 -4.872,-26.972 -1.382,-20.778 2.332,-40.083 9.586,-54.876 l 0.371,-6.222 -43.906,-66.121 32.121,-65.5 76.95,-8.36 9.617,-8.593 c 4.683,-7.735 10.527,-15.352 17.504,-22.481 11.226,-11.465 23.804,-19.988 36.222,-25.359 l 12.899,-11.485 z" /></clipPath><linearGradient
       id="linearGradient48"
       spreadMethod="pad"
       gradientTransform="matrix(-3.39e-5,-775.535,-775.535,3.39e-5,1111.33,919.405)"
       gradientUnits="userSpaceOnUse"
       y2="0"
       x2="1"
       y1="0"
       x1="0"><stop
         id="stop44"
         offset="0"
         style="stop-opacity:1;stop-color:#bbd5aa" /><stop
         id="stop46"
         offset="1"
         style="stop-opacity:1;stop-color:#acc89c" /></linearGradient></defs><g
     transform="matrix(1.3333333,0,0,-1.3333333,0,118.70667)"
     id="g10"><g
       transform="scale(0.1)"
       id="g12"><g
         id="g14"><g
           clip-path="url(#clipPath20)"
           id="g16"><g
             clip-path="url(#clipPath26)"
             id="g22"><path
               id="path34"
               style="fill:url(#linearGradient32);fill-opacity:1;fill-rule:nonzero;stroke:none"
               d="m 319,120 v 1 h -1 v 2 h -1 v 2 h -1 v 2 h -1 v 1 h -1 v 2 h -1 v 2 h -1 v 2 h -1 v 2 h -1 v 1 h -1 v 2 h -1 v 2 h -1 v 2 h -1 v 2 h -1 v 2 h -1 v 1 h -1 v 2 h -1 v 2 h -1 v 2 h -1 v 2 h -1 v 2 h -1 v 1 h -1 v 2 h -1 v 2 h -1 v 2 h -1 v 2 h -1 v 1 h -1 v 2 h -1 v 2 h -1 v 2 h -1 v 2 h -1 v 2 h -1 v 1 h -1 v 2 h -1 v 2 h -1 v 2 h -1 v 2 h -1 v 2 h -1 v 1 h -2 v 1 h -2 v 1 h -2 v 1 h -2 v 1 h -1 v 1 h -2 v 1 h -2 v 1 h -2 v 1 h -2 v 1 h -3 v 1 h -3 v 1 h -3 v 1 h -4 v 1 h -3 v 1 h -2 v 1 h -2 v 1 h -2 v 1 h -2 v 1 h -2 v 1 h -2 v 1 h -2 v 1 h -2 v 1 h -2 v 1 h -1 v 1 h -2 v 1 h -1 v 1 h -2 v 1 h -1 v 1 h -2 v 1 h -1 v 1 h -2 v 1 h -1 v 1 h -1 v 1 h -1 v 1 h -1 v 1 h -1 v 1 h -2 v 1 h -1 v 1 h -1 v 1 h -1 v 1 h -2 v 1 h -1 v 1 h -2 v 1 h -2 v 1 h -2 v 1 h -2 v 1 h -2 v 1 h -5 v -1 h -7 v -1 h -6 v -1 h -6 v -1 h -6 v -1 h -7 v -1 h -6 v -1 h -6 v -1 h -6 v -1 h -7 v -1 h -6 v -1 h -6 v -1 h -5 v 2 h -1 v 1 h -1 v 1 h -1 v 1 h -1 v 1 h -1 v 1 h -1 v 1 h -1 v 1 h -1 v 2 h -1 v 1 h -1 v 1 h -1 v 1 h -1 v 1 h -1 v 1 h -1 v 1 h -1 v 1 h -1 v 2 h -1 v 1 h -1 v 1 h -1 v 1 h -1 v 1 h -1 v 1 h -1 v 1 h -1 v 2 h -1 v 1 h -1 v 1 h -1 v 1 h -1 v 1 h -1 v 1 h -1 v 1 h -1 v 1 h -1 v 2 h -1 v 1 h -1 v 1 h -1 v 1 h -1 v 1 h -1 v 1 h -1 v 1 h -1 v 1 h -1 v 2 h -1 v 1 h -1 v 1 h -1 v 1 h -1 v 1 h -1 v 1 h -1 v 1 h -1 v 2 h -1 v 1 h -1 v 1 h -1 v 1 h -1 v 1 h -1 v 1 h 1 v 3 h 1 v 3 h 1 v 2 h 1 v 3 h 1 v 3 h 1 v 2 h 1 v 3 h 1 v 3 h 1 v 2 h 1 v 3 h 1 v 3 h 1 v 2 h 1 v 3 h 1 v 2 h 1 v 3 h 1 v 3 h 1 v 2 h 1 v 3 h 1 v 3 h 1 v 2 h 1 v 3 h 1 v 3 h 1 v 2 h 1 v 3 h 1 v 3 h 1 v 2 h 1 v 3 h 1 v 3 h 1 v 2 h 149 v -1 h 1 v -1 h 1 v -1 h 1 v -1 h 1 v -1 h 1 v -1 h 1 v -1 h 1 v -1 h 1 v -2 h 1 v -1 h 2 v -1 h 1 v -1 h 1 v -1 h 1 v -1 h 1 v -1 h 1 v -1 h 1 v -1 h 1 v -1 h 1 v -1 h 2 v -1 h 1 v -1 h 1 v -1 h 2 v -1 h 1 v -1 h 1 v -1 h 2 v -1 h 1 v -1 h 2 v -1 h 1 v -1 h 2 v -1 h 1 v -1 h 2 v -1 h 1 v -1 h 2 v -1 h 2 v -1 h 2 v -1 h 1 v -1 h 2 v -1 h 2 v -1 h 2 v -1 h 2 v -1 h 2 v -1 h 2 v -1 h 3 v -1 h 2 v -1 h 2 v -1 h 3 v -1 h 2 v -1 h 3 v -1 h 3 v -1 h 3 v -1 h 3 v -1 h 3 v -1 h 4 v -1 h 3 v -1 h 4 v -1 h 4 v -1 h 5 v -1 h 6 v -1 h 5 v -1 h 9 v -1 h 9 v -1 h 35 v 1 h 10 v 1 h 5 v 1 h 5 v 1 h 4 v 1 h 4 v 1 h 3 v 1 h 3 v 1 h 3 v 1 h 3 v 1 h 3 v 1 h 3 v 1 h 2 v 1 h 2 v 1 h 2 v 1 h 2 v 1 h 2 v 1 h 3 v 1 h 2 v 1 h 2 v 1 h 1 v 1 h 2 v 1 h 2 v 1 h 1 v 1 h 2 v 1 h 2 v 1 h 1 v 1 h 2 v 1 h 2 v 1 h 1 v 1 h 2 v 1 h 1 v 1 h 1 v 1 h 2 v 1 h 1 v 1 h 1 v 1 h 2 v 1 h 1 v 1 h 2 v 1 h 1 v 1 h 1 v 1 h 1 v 1 h 1 v 1 h 2 v 1 h 1 v 1 h 1 v 1 h 1 v 1 h 1 v 1 h 1 v 1 h 1 v 1 h 2 v 1 h 1 v 1 h 1 v 1 h 1 v 1 h 1 v 1 h 1 v 1 h 1 v 1 h 1 v 1 h 1 v 1 h 1 v 1 h 1 v 1 h 1 v 1 h 1 v 1 h 1 v 1 h 1 v 1 h 1 v 2 h 1 v 1 h 1 v 1 h 1 v 1 h 1 v 1 h 1 v 1 h 1 v 2 h 1 v 1 h 1 v 1 h 1 v 1 h 1 v 1 h 1 v 2 h 1 v 1 h 1 v 1 h 1 v 2 h 1 v 1 h 1 v 1 h 1 v 2 h 1 v 1 h 1 v 1 h 1 v 2 h 1 v 2 h 1 v 1 h 1 v 2 h 1 v 1 h 1 v 2 h 1 v 1 h 1 v 2 h 1 v 2 h 1 v 2 h 1 v 1 h 1 v 2 h 1 v 2 h 1 v 2 h 1 v 2 h 1 v 2 h 1 v 2 h 1 v 2 h 1 v 3 h 1 v 2 h 1 v 3 h 1 v 3 h 1 v 5 h 1 v 9 h -1 v 1 h -11 v 1 h -42 v 1 H 330 v -1 H 199 v -1 H 99 v -1 H 67 v 1 h -1 v 1 h -2 v 1 h -1 v 1 h -1 v 1 h -2 v 1 h -1 v 1 h -1 v 1 h -2 v 1 h -1 v 1 h -1 v 1 h -2 v 1 h -1 v 1 h -1 v 1 h -2 v 1 h -1 v 1 h -1 v 1 h -2 v 1 h -1 v 1 h -2 v 1 h -1 v 1 h -1 v 1 h -2 v 1 h -1 v 1 h -1 v 1 h -2 v 1 h -1 v 1 h -1 v 1 h -2 v 1 h -1 v 1 h -1 v 1 h -2 v 1 h -1 v 1 h -2 v 1 h -1 v 1 h -1 v 1 h -2 v 1 h -1 v 1 h -1 v 1 h -2 v 1 h -1 v 1 h -1 v 1 h -2 v 1 H 9 v 1 H 8 v 1 H 6 v 1 H 5 v 1 H 3 v 1 H 2 v 1 H 1 v 1 H 0 v 13 h 1 v 11 h 1 v 11 h 1 v 12 h 1 v 11 h 1 v 11 h 1 v 9 h 2 v 1 h 3 v 1 h 2 v 1 h 2 v 1 h 2 v 1 h 2 v 1 h 2 v 1 h 2 v 1 h 2 v 1 h 2 v 1 h 2 v 1 h 2 v 1 h 2 v 1 h 2 v 1 h 2 v 1 h 2 v 1 h 3 v 1 h 2 v 1 h 2 v 1 h 2 v 1 h 2 v 1 h 2 v 1 h 2 v 1 h 2 v 1 h 2 v 1 h 2 v 1 h 2 v 1 h 2 v 1 h 2 v 1 h 2 v 1 h 2 v 1 h 3 v 1 h 2 v 1 h 1 v 2 h 1 v 2 h 1 v 2 h 1 v 2 h 1 v 1 h 1 v 5 h 1 v 5 h 1 v 4 h 1 v 3 h 1 v 3 h 1 v 3 h 1 v 2 h 1 v 3 h 1 v 2 h 1 v 2 h 1 v 2 h 1 v 2 h 1 v 2 h 1 v 1 h 1 v 2 h 1 v 2 h 1 v 1 h 1 v 2 h 1 v 1 h 1 v 2 h 1 v 1 h 1 v 1 h 1 v 2 h 1 v 1 h 1 v 1 h 1 v 1 h 1 v 1 h 1 v 1 h 1 v 2 h 1 v 1 h 1 v 1 h 1 v 1 h 1 v 1 h 1 v 2 h 1 v 1 h 1 v 2 h 1 v 2 h 1 v 2 h 1 v 2 h 1 v 2 h 1 v 5 h -1 v 7 h -1 v 7 h -1 v 6 h -1 v 7 h -1 v 6 h -1 v 7 h -1 v 7 h -1 v 6 h -1 v 7 h -1 v 7 h -1 v 6 h -1 v 5 h 1 v 1 h 1 v 1 h 1 v 1 h 1 v 1 h 2 v 1 h 1 v 1 h 1 v 1 h 1 v 1 h 1 v 1 h 1 v 1 h 1 v 1 h 2 v 1 h 1 v 1 h 1 v 1 h 1 v 1 h 1 v 1 h 1 v 1 h 1 v 1 h 1 v 1 h 2 v 1 h 1 v 1 h 1 v 1 h 1 v 1 h 1 v 1 h 1 v 1 h 1 v 1 h 2 v 1 h 1 v 1 h 1 v 1 h 1 v 1 h 1 v 1 h 1 v 1 h 1 v 1 h 2 v 1 h 1 v 1 h 1 v 1 h 1 v 1 h 1 v 1 h 1 v 1 h 1 v 1 h 2 v 1 h 1 v 1 h 1 v 1 h 1 v 1 h 1 v 1 h 1 v 1 h 1 v 1 h 2 v 1 h 1 v -1 h 3 v -1 h 3 v -1 h 2 v -1 h 3 v -1 h 3 v -1 h 2 v -1 h 3 v -1 h 2 v -1 h 3 v -1 h 3 v -1 h 2 v -1 h 3 v -1 h 3 v -1 h 2 v -1 h 3 v -1 h 3 v -1 h 2 v -1 h 3 v -1 h 3 v -1 h 2 v -1 h 3 v -1 h 3 v -1 h 2 v -1 h 3 v -1 h 3 v -1 h 2 v -1 h 3 v -1 h 3 v -1 h 3 v 1 h 3 v 1 h 3 v 1 h 3 v 1 h 2 v 1 h 2 v 1 h 1 v 1 h 2 v 1 h 2 v 1 h 1 v 1 h 2 v 1 h 2 v 1 h 1 v 1 h 2 v 1 h 3 v 1 h 2 v 1 h 2 v 1 h 3 v 1 h 2 v 1 h 2 v 1 h 4 v 1 h 3 v 1 h 4 v 1 h 4 v 1 h 4 v 1 h 8 v 1 h 6 v 1 h 3 v 1 h 2 v 1 h 3 v 1 h 3 v 1 h 3 v 1 h 2 v 2 h 1 v 1 h 1 v 1 h 1 v 2 h 1 v 1 h 1 v 2 h 1 v 1 h 1 v 1 h 1 v 2 h 1 v 1 h 1 v 1 h 1 v 2 h 1 v 1 h 1 v 2 h 1 v 1 h 1 v 1 h 1 v 2 h 1 v 1 h 1 v 1 h 1 v 2 h 1 v 1 h 1 v 2 h 1 v 1 h 1 v 1 h 1 v 2 h 1 v 1 h 1 v 2 h 1 v 1 h 1 v 1 h 1 v 2 h 1 v 1 h 1 v 1 h 1 v 2 h 1 v 1 h 1 v 2 h 1 v 1 h 1 v 1 h 1 v 2 h 1 v 1 h 1 v 1 h 1 v 2 h 1 v 1 h 1 v 2 h 1 v 1 h 1 v 1 h 1 v 2 h 25 v -1 h 17 v -1 h 17 v -1 h 17 v -1 h 3 v -2 h 1 v -2 h 1 v -2 h 1 v -2 h 1 v -2 h 1 v -2 h 1 v -2 h 1 v -2 h 1 v -2 h 1 v -2 h 1 v -2 h 1 v -2 h 1 v -3 h 1 v -2 h 1 v -2 h 1 v -2 h 1 v -2 h 1 v -2 h 1 v -2 h 1 v -2 h 1 v -2 h 1 v -2 h 1 v -2 h 1 v -2 h 1 v -2 h 1 v -2 h 1 v -2 h 1 v -2 h 1 v -2 h 1 v -2 h 1 v -2 h 1 v -2 h 1 v -2 h 1 v -2 h 1 v -2 h 1 v -1 h 1 v -1 h 1 v -1 h 2 v -1 h 2 v -1 h 2 v -1 h 5 v -1 h 6 v -1 h 4 v -1 h 4 v -1 h 3 v -1 h 3 v -1 h 3 v -1 h 2 v -1 h 3 v -1 h 2 v -1 h 2 v -1 h 3 v -1 h 2 v -1 h 1 v -1 h 2 v -1 h 2 v -1 h 2 v -1 h 1 v -1 h 2 v -1 h 2 v -1 h 1 v -1 h 1 v -1 h 2 v -1 h 1 v -1 h 1 v -1 h 1 v -1 h 2 v -1 h 1 v -1 h 1 v -1 h 1 v -1 h 1 v -1 h 1 v -1 h 1 v -1 h 1 v -1 h 1 v -1 h 1 v -1 h 1 v -1 h 1 v -1 h 2 v -1 h 2 v -1 h 3 v 1 h 6 v 1 h 5 v 1 h 6 v 1 h 6 v 1 h 6 v 1 h 6 v 1 h 6 v 1 h 5 v 1 h 6 v 1 h 6 v 1 h 6 v 1 h 6 v 1 h 7 v -1 h 1 v -1 h 1 v -1 h 1 v -1 h 1 v -2 h 1 v -1 h 1 v -1 h 1 v -1 h 1 v -1 h 1 v -2 h 1 v -1 h 1 v -1 h 1 v -1 h 1 v -1 h 1 v -2 h 1 v -1 h 1 v -1 h 1 v -1 h 1 v -1 h 1 v -1 h 1 v -2 h 1 v -1 h 1 v -1 h 1 v -1 h 1 v -1 h 1 v -2 h 1 v -1 h 1 v -1 h 1 v -1 h 1 v -1 h 1 v -2 h 1 v -1 h 1 v -1 h 1 v -1 h 1 v -1 h 1 v -2 h 1 v -1 h 1 v -1 h 1 v -1 h 1 v -1 h 1 v -1 h 1 v -2 h 1 v -1 h 1 v -1 h 1 v -1 h 1 v -1 h 1 v -5 h -1 v -3 h -1 v -3 h -1 v -3 h -1 v -3 h -1 v -4 h -1 v -3 h -1 v -3 h -1 v -3 h -1 v -3 h -1 v -3 h -1 v -3 h -1 v -4 h -1 v -3 h -1 v -3 h -1 v -3 h -1 v -3 h -1 v -3 h -1 v -3 h -1 v -4 h -1 v -3 h -1 v -3 h -1 v -3 h -1 v -3 h 1 v -3 h 1 v -3 h 1 v -3 h 1 v -3 h 1 v -1 h 1 v -2 h 1 v -1 h 1 v -2 h 1 v -2 h 1 v -1 h 1 v -2 h 1 v -2 h 1 v -2 h 1 v -3 h 1 v -2 h 1 v -2 h 1 v -2 h 1 v -4 h 1 v -3 h 1 v -3 h 1 v -4 h 1 v -3 h 1 v -4 h 1 v -8 h 1 v -10 h 1 v -6 h 1 v -3 h 1 v -3 h 1 v -3 h 1 v -3 h 1 v -3 h 2 v -1 h 1 v -1 h 2 v -1 h 1 v -1 h 2 v -1 h 1 v -1 h 2 v -1 h 1 v -1 h 1 v -1 h 2 v -1 h 1 v -1 h 2 v -1 h 1 v -1 h 2 v -1 h 1 v -1 h 2 v -1 h 1 v -1 h 2 v -1 h 1 v -1 h 2 v -1 h 1 v -1 h 1 v -1 h 2 v -1 h 1 v -1 h 2 v -1 h 1 v -1 h 2 v -1 h 1 v -1 h 2 v -1 h 1 v -1 h 2 v -1 h 1 v -1 h 2 v -1 h 1 v -1 h 1 v -1 h 2 v -1 h 1 v -1 h 2 v -1 h 1 v -1 h 2 v -1 h 1 v -1 h 2 v -1 h 1 v -1 h 1 v -5 h -1 v -14 h -1 v -13 h -1 v -14 h -1 v -14 h -1 v -13 h -1 v -4 h -1 v -1 h -2 v -1 h -2 v -1 h -2 v -1 h -2 v -1 h -2 v -1 h -2 v -1 h -2 v -1 h -2 v -1 h -2 v -1 h -2 v -1 h -2 v -1 h -2 v -1 h -2 v -1 h -2 v -1 h -2 v -1 h -3 v -1 h -2 v -1 h -2 v -1 h -2 v -1 h -2 v -1 h -2 v -1 h -2 v -1 h -2 v -1 h -2 v -1 h -2 v -1 h -2 v -1 h -2 v -1 h -2 v -1 h -2 v -1 h -2 v -1 h -2 v -1 h -2 v -2 h -1 v -2 h -1 v -2 h -1 v -2 h -1 v -2 h -1 v -1 h -1 v -2 h -1 v -2 h -1 v -2 h -1 v -2 h -1 v -3 h -1 v -4 h -1 v -4 h -1 v -4 h -1 v -4 h -1 v -4 h -1 v -2 h -1 v -2 h -1 v -2 h -1 v -2 h -1 v -2 h -1 v -2 h -1 v -2 h -1 v -2 h -1 v -2 h -1 v -2 h -1 v -2 h -1 v -1 h -1 v -2 h -1 v -1 h -1 v -2 h -1 v -1 h -1 v -2 h -1 v -1 h -1 v -2 h -1 v -1 h -1 v -1 h -1 v -1 h -1 v -1 h -1 v -1 h -1 v -1 h -1 v -1 h -1 v -1 h -1 v -2 h -1 v -1 h -1 v -2 h -1 v -2 h -1 v -2 h -1 v -1 h 1 v -9 h 1 v -8 h 1 v -9 h 1 v -8 h 1 v -9 h 1 v -8 h 1 v -9 h 1 v -8 h 1 v -8 h -1 v -1 h -1 v -1 h -2 v -1 h -1 v -1 h -1 v -1 h -1 v -1 h -1 v -1 h -1 v -1 h -1 v -1 h -1 v -1 h -1 v -1 h -1 v -1 h -1 v -1 h -1 v -1 h -1 v -1 h -1 v -1 h -1 v -1 h -2 v -1 h -1 v -1 h -1 v -1 h -1 v -1 h -1 v -1 h -1 v -1 h -1 v -1 h -1 v -1 h -1 v -1 h -1 v -1 h -1 v -1 h -1 v -1 h -1 v -1 h -1 v -1 h -1 v -1 h -2 v -1 h -1 v -1 h -1 v -1 h -1 v -1 h -1 v -1 h -1 v -1 h -1 v -1 h -1 v -1 h -1 v -1 h -1 v -1 h -1 v -1 h -1 v -1 h -1 v -1 h -1 v -1 h -2 v -1 h -1 v -1 h -3 v 1 h -4 v 1 h -3 v 1 h -3 v 1 h -3 v 1 h -3 v 1 h -3 v 1 h -3 v 1 h -3 v 1 h -3 v 1 h -3 v 1 h -3 v 1 h -4 v 1 h -3 v 1 h -3 v 1 h -3 v 1 h -3 v 1 h -3 v 1 h -3 v 1 h -3 v 1 h -3 v 1 h -3 v 1 h -4 v 1 h -4 v -1 h -3 v -1 h -3 v -1 h -4 v -1 h -2 v -1 h -2 v -1 h -2 v -1 h -1 v -1 h -2 v -1 h -2 v -1 h -2 v -1 h -1 v -1 h -2 v -1 h -3 v -1 h -2 v -1 h -3 v -1 h -3 v -1 h -2 v -1 h -3 v -1 h -4 v -1 h -4 v -1 h -4 v -1 h -5 v -1 h -9 v -1 h -12 v -1 h -3 v -1 h -3 v -1 h -4 v -1 h -3 v -1 h -3 v -1 h -2 v -1 h -1 v -2 h -1 v -1 h -1 v -2 h -1 v -1 h -1 v -1 h -1 v -2 h -1 v -1 h -1 v -2 h -1 v -1 h -1 v -1 h -1 v -2 h -1 v -1 h -1 v -2 h -1 v -1 h -1 v -1 h -1 v -2 h -1 v -1 h -1 v -2 h -1 v -1 h -1 v -1 h -1 v -2 h -1 v -1 h -1 v -2 h -1 v -1 h -1 v -1 h -1 v -2 h -1 v -1 h -1 v -2 h -1 v -1 h -1 v -1 h -1 v -2 h -1 v -1 h -1 v -2 h -1 v -1 h -1 v -1 h -1 v -2 h -1 v -1 h -1 v -2 h -1 v -1 h -1 v -1 h -1 v -1 z M 200,559 v -1 h 378 v 3 h -1 v 3 h -1 v 3 h -1 v 3 h -1 v 3 h -1 v 2 h -1 v 3 h -1 v 2 h -1 v 3 h -1 v 2 h -1 v 2 h -1 v 2 h -1 v 2 h -1 v 2 h -1 v 2 h -1 v 2 h -1 v 2 h -1 v 2 h -1 v 2 h -1 v 1 h -1 v 2 h -1 v 2 h -1 v 1 h -1 v 2 h -1 v 2 h -1 v 2 h -1 v 1 h -1 v 2 h -1 v 1 h -1 v 1 h -1 v 2 h -1 v 1 h -1 v 2 h -1 v 1 h -1 v 2 h -1 v 1 h -1 v 1 h -1 v 1 h -1 v 2 h -1 v 1 h -1 v 1 h -1 v 1 h -1 v 1 h -1 v 2 h -1 v 1 h -1 v 1 h -1 v 1 h -1 v 1 h -1 v 1 h -1 v 1 h -1 v 1 h -1 v 1 h -1 v 1 h -1 v 1 h -1 v 1 h -1 v 1 h -1 v 1 h -1 v 1 h -1 v 1 h -1 v 1 h -1 v 1 h -1 v 1 h -1 v 1 h -1 v 1 h -1 v 1 h -2 v 1 h -1 v 1 h -1 v 1 h -1 v 1 h -1 v 1 h -2 v 1 h -1 v 1 h -1 v 1 h -2 v 1 h -1 v 1 h -2 v 1 h -1 v 1 h -2 v 1 h -1 v 1 h -2 v 1 h -1 v 1 h -2 v 1 h -2 v 1 h -1 v 1 h -2 v 1 h -2 v 1 h -2 v 1 h -2 v 1 h -2 v 1 h -2 v 1 h -2 v 1 h -3 v 1 h -2 v 1 h -2 v 1 h -3 v 1 h -3 v 1 h -3 v 1 h -3 v 1 h -3 v 1 h -3 v 1 h -5 v 1 h -5 v 1 h -5 v 1 h -5 v 1 h -6 v 1 h -16 v 1 h -18 v -1 h -18 v -1 h -6 v -1 h -7 v -1 h -6 v -1 h -6 v -1 h -3 v -1 h -4 v -1 h -4 v -1 h -3 v -1 h -4 v -1 h -4 v -1 h -2 v -1 h -3 v -1 h -2 v -1 h -3 v -1 h -2 v -1 h -3 v -1 h -2 v -1 h -3 v -1 h -2 v -1 h -2 v -1 h -2 v -1 h -2 v -1 h -2 v -1 h -1 v -1 h -2 v -1 h -2 v -1 h -2 v -1 h -2 v -1 h -1 v -1 h -2 v -1 h -1 v -1 h -2 v -1 h -1 v -1 h -2 v -1 h -1 v -1 h -2 v -1 h -1 v -1 h -2 v -1 h -1 v -1 h -2 v -1 h -1 v -1 h -1 v -1 h -1 v -1 h -1 v -1 h -2 v -1 h -1 v -1 h -1 v -1 h -1 v -1 h -2 v -1 h -1 v -1 h -1 v -1 h -1 v -1 h -1 v -1 h -1 v -1 h -1 v -1 h -1 v -1 h -1 v -1 h -1 v -1 h -1 v -1 h -1 v -1 h -1 v -1 h -1 v -1 h -1 v -1 h -1 v -1 h -1 v -2 h -1 v -1 h -1 v -1 h -1 v -1 h -1 v -1 h -1 v -1 h -1 v -2 h -1 v -1 h -1 v -1 h -1 v -1 h -1 v -2 h -1 v -1 h -1 v -2 h -1 v -1 h -1 v -1 h -1 v -2 h -1 v -1 h -1 v -2 h -1 v -1 h -1 v -2 h -1 v -2 h -1 v -1 h -1 v -2 h -1 v -1 h -1 v -2 h -1 v -2 h -1 v -2 h -1 v -2 h -1 v -2 h -1 v -2 h -1 v -2 h -1 v -2 h -1 v -3 h -1 v -2 h -1 v -2 h -1 v -3 h -1 v -3 h -1 v -3 h -1 v -5 h -1 v -6" /></g></g></g><g
         id="g36"><g
           clip-path="url(#clipPath42)"
           id="g38"><path
             id="path50"
             style="fill:url(#linearGradient48);fill-opacity:1;fill-rule:nonzero;stroke:none"
             d="m 984.059,333.918 c 0,0 -117.149,91.492 -58.418,224.324 61.445,138.996 193.289,133.235 212.249,123.633 z m -36.942,-196.848 71.753,-25.617 56.29,47.192 21.99,1.343 c 13.35,-3.718 28.92,-4.929 45.3,-2.91 10.68,1.379 20.69,3.988 29.72,7.551 l 7.24,0.441 65.87,-38.898 66.19,28.164 7.91,75.906 9.53,11.156 c 9.27,5.829 18.3,13.536 26.43,22.899 8.52,9.824 15.09,20.398 19.61,30.91 l 12.69,14.813 69.86,14.328 31.17,70.496 -47.99,62.754 -1.62,18.468 c 2.18,11.372 2.68,23.969 1.04,37.082 -1.23,9.922 -3.56,19.262 -6.74,27.743 l -1.39,15.863 42.42,65.531 -32.36,70.492 -82.26,4.61 -59.64,-134.883 c 0,0 40.17,-66.641 -4.99,-168.82 -45.19,-102.18 -187.48,-118.696 -207.77,-102.395 -4.96,3.984 205.58,464.961 205.58,464.961 l -18.44,82.676 -72.19,24.594 -58.66,-49.797 -10.86,-0.743 c -14.97,4.34 -33.12,5.145 -52.03,1.438 -7.82,-1.523 -15.21,-3.723 -22.08,-6.473 l -13.27,-0.894 -69.643,44.23 -66.082,-30.64 -4.597,-82.282 -9.352,-9.851 c -9.18,-5.426 -18.18,-12.59 -26.391,-21.36 -7.718,-8.257 -13.972,-17.109 -18.703,-26.039 l -11.773,-12.418 -78.266,-16.707 -26.629,-71.308 51.973,-62.051 0.563,-9.715 c -2.504,-8.363 -4.231,-17.422 -4.872,-26.972 -1.382,-20.778 2.332,-40.083 9.586,-54.876 l 0.371,-6.222 -43.906,-66.121 32.121,-65.5 76.95,-8.36 9.617,-8.593 c 4.683,-7.735 10.527,-15.352 17.504,-22.481 11.226,-11.465 23.804,-19.988 36.222,-25.359 l 12.899,-11.485 14.105,-75.871" /></g></g><path
         id="path52"
         style="fill:#231f20;fill-opacity:1;fill-rule:nonzero;stroke:none"
         d="m 1739.45,128.879 v 414.617 h 260.85 v -82.801 h -167.47 v -75.957 h 154.4 v -82.804 h -154.4 V 211.68 h 167.47 v -82.801 h -260.85" /><path
         id="path54"
         style="fill:#231f20;fill-opacity:1;fill-rule:nonzero;stroke:none"
         d="m 2235.02,281.398 96.5,-152.519 h -90.27 l -53.54,84.031 -53.54,-84.031 h -90.27 l 96.5,152.519 -94.01,150.645 h 88.4 l 52.92,-82.805 52.92,82.805 h 88.4 l -94.01,-150.645" /><path
         id="path56"
         style="fill:#231f20;fill-opacity:1;fill-rule:nonzero;stroke:none"
         d="m 2482.82,122.637 c -57.9,0 -91.52,21.797 -91.52,77.812 v 159.395 h -41.09 v 72.199 h 41.09 v 72.859 l 89.65,12.438 v -85.297 h 69.11 l -4.98,-72.199 h -64.13 V 212.91 c 0,-12.461 7.47,-16.816 18.68,-16.816 9.96,0 24.27,1.261 37.35,5.617 l 10.59,-67.852 c -19.93,-6.847 -44.21,-11.222 -64.75,-11.222" /><path
         id="path58"
         style="fill:#231f20;fill-opacity:1;fill-rule:nonzero;stroke:none"
         d="m 2758,329.324 c 0,21.176 -6.23,38.598 -37.36,38.598 -31.12,0 -41.09,-17.422 -41.09,-38.598 V 316.262 H 2758 Z m -78.45,-80.308 v -8.711 c 0,-34.864 13.71,-44.211 54.8,-44.211 28.01,0 65.36,4.992 92.13,13.097 l 13.07,-67.246 c -27.38,-9.972 -71.59,-19.308 -113.92,-19.308 -98.37,0 -135.72,48.562 -135.72,123.281 v 70.945 c 0,65.383 29.26,121.399 130.11,121.399 100.86,0 122.65,-59.746 122.65,-125.75 v -63.496 h -163.12" /><path
         id="path60"
         style="fill:#231f20;fill-opacity:1;fill-rule:nonzero;stroke:none"
         d="m 3084.86,128.879 v 200.445 c 0,13.703 -6.22,21.781 -21.79,21.781 -16.18,0 -46.06,-11.183 -65.36,-21.781 V 128.879 h -89.65 v 303.164 h 66.62 l 9.33,-23.027 c 37.36,18.062 85.92,29.246 120.78,29.246 51.67,0 69.72,-38.594 69.72,-97.102 V 128.879 h -89.65" /><path
         id="path62"
         style="fill:#231f20;fill-opacity:1;fill-rule:nonzero;stroke:none"
         d="m 3346.99,122.637 c -33,0 -80.31,8.105 -110.19,18.066 l 14.3,66.594 c 24.92,-7.453 57.91,-13.692 91.54,-13.692 26.76,0 31.12,7.481 31.12,25.528 0,19.305 -0.62,21.805 -49.19,33.633 -73.47,18.054 -80.31,37.968 -80.31,94.617 0,64.121 24.91,90.879 115.81,90.879 23.03,0 65.37,-3.094 92.13,-9.942 l -8.08,-69.734 c -26.79,4.98 -59.77,8.73 -83.44,8.73 -26.14,0 -32.37,-6.867 -32.37,-20.539 0,-18.679 2.49,-21.179 38.6,-29.289 86.55,-19.273 92.77,-37.957 92.77,-98.355 0,-62.258 -26.16,-96.496 -112.69,-96.496" /><path
         id="path64"
         style="fill:#231f20;fill-opacity:1;fill-rule:nonzero;stroke:none"
         d="m 3521.96,128.879 v 303.164 h 89.63 V 128.879 Z m 0,341.16 v 95.238 h 89.63 v -95.238 h -89.63" /><path
         id="path66"
         style="fill:#231f20;fill-opacity:1;fill-rule:nonzero;stroke:none"
         d="m 3861.26,242.793 v 75.332 c 0,28.652 -14.95,44.816 -47.33,44.816 -32.38,0 -47.31,-16.164 -47.31,-44.816 v -75.332 c 0,-28.621 14.93,-44.832 47.31,-44.832 32.38,0 47.33,16.211 47.33,44.832 z m -184.29,2.5 v 70.344 c 0,62.254 29.25,122.625 136.96,122.625 107.7,0 136.98,-60.371 136.98,-122.625 v -70.344 c 0,-62.266 -29.28,-122.656 -136.98,-122.656 -107.71,0 -136.96,60.39 -136.96,122.656" /><path
         id="path68"
         style="fill:#231f20;fill-opacity:1;fill-rule:nonzero;stroke:none"
         d="m 4193.11,128.879 v 200.445 c 0,13.703 -6.25,21.781 -21.81,21.781 -16.19,0 -46.05,-11.183 -65.36,-21.781 V 128.879 h -89.65 v 303.164 h 66.62 l 9.34,-23.027 c 37.36,18.062 85.89,29.246 120.77,29.246 51.66,0 69.73,-38.594 69.73,-97.102 V 128.879 h -89.64" /><path
         id="path70"
         style="fill:#231f20;fill-opacity:1;fill-rule:nonzero;stroke:none"
         d="m 4373.04,543.496 h 244.05 V 495.562 H 4426.58 V 365.43 h 176.81 V 317.488 H 4426.58 V 176.809 h 191.13 v -47.93 h -244.67 v 414.617" /><path
         id="path72"
         style="fill:#231f20;fill-opacity:1;fill-rule:nonzero;stroke:none"
         d="m 4889.16,128.879 v 231.57 c 0,19.934 -9.94,28.02 -29.25,28.02 -22.41,0 -69.11,-13.703 -101.48,-30.489 V 128.879 h -52.3 v 303.164 h 42.35 l 4.96,-26.137 c 33.63,16.196 85.93,32.356 122.03,32.356 48.56,0 65.99,-30.489 65.99,-77.188 V 128.879 h -52.3" /><path
         id="path74"
         style="fill:#231f20;fill-opacity:1;fill-rule:nonzero;stroke:none"
         d="m 5134.47,395.312 c -50.42,0 -69.1,-16.796 -69.1,-61.628 v -13.071 c 0,-46.07 19.31,-60.398 69.1,-60.398 49.81,0 69.11,20.547 69.11,60.398 v 13.071 c 0,44.207 -18.68,61.628 -69.11,61.628 z m 138.23,6.243 -36.14,-6.867 c 11.23,-15.567 16.19,-36.708 16.82,-60.379 v -13.696 c 0,-65.359 -39.83,-103.347 -118.91,-103.347 -11.2,0 -21.77,0.636 -31.11,1.867 -10.6,-8.711 -21.81,-19.289 -21.81,-32.356 0,-11.828 6.25,-16.179 19.94,-17.441 31.75,-3.125 47.91,-4.988 85.9,-8.711 54.79,-5.613 75.96,-26.766 75.96,-72.8438 C 5263.35,21.7969 5240.31,0 5130.75,0 c -28.03,0 -75.96,4.98047 -110.19,14.3242 l 7.47,41.086 c 31.75,-7.4805 70.97,-12.461 101.46,-12.461 77.22,0 84.67,10.5977 84.67,42.3438 0,25.527 -9.35,29.883 -44.81,32.988 -33.62,3.117 -44.84,4.356 -80.32,7.473 -44.81,3.75 -59.14,27.391 -59.14,55.406 0,22.414 12.44,41.098 28.64,53.528 -28.64,16.191 -42.33,46.074 -42.33,85.925 v 13.696 c 0,65.996 31.75,103.953 118.27,103.953 15.57,0 36.74,-1.864 51.07,-6.219 h 87.16 v -30.488" /><path
         id="path76"
         style="fill:#231f20;fill-opacity:1;fill-rule:nonzero;stroke:none"
         d="m 5343.06,128.879 v 303.164 h 52.29 V 128.879 Z m 0,351.73 v 75.329 h 52.29 v -75.329 h -52.29" /><path
         id="path78"
         style="fill:#231f20;fill-opacity:1;fill-rule:nonzero;stroke:none"
         d="m 5678,128.879 v 231.57 c 0,19.934 -9.94,28.02 -29.26,28.02 -22.42,0 -69.1,-13.703 -101.48,-30.489 V 128.879 h -52.29 v 303.164 h 42.32 l 4.99,-26.137 c 33.63,16.196 85.92,32.356 122.03,32.356 48.56,0 65.98,-30.489 65.98,-77.188 V 128.879 H 5678" /><path
         id="path80"
         style="fill:#231f20;fill-opacity:1;fill-rule:nonzero;stroke:none"
         d="m 5863.54,303.801 h 130.11 v 24.898 c 0,42.348 -14.32,65.989 -63.49,65.989 -49.19,0 -66.62,-23.641 -66.62,-65.989 z m 72.23,-136.328 c 29.86,0 62.87,5.586 95.85,14.324 l 6.88,-41.719 c -28.66,-10.574 -69.13,-17.441 -107.1,-17.441 -89.63,0 -120.15,42.968 -120.15,111.445 v 90.891 c 0,62.89 28.63,113.289 118.91,113.289 89.65,0 113.92,-51.66 113.92,-114.524 v -63.523 h -180.54 v -25.527 c 0,-47.911 13.07,-67.215 72.23,-67.215" /></g></g></svg>