<?xml version="1.0" encoding="UTF-8" standalone="no"?>
<svg
   xmlns:dc="http://purl.org/dc/elements/1.1/"
   xmlns:cc="http://creativecommons.org/ns#"
   xmlns:rdf="http://www.w3.org/1999/02/22-rdf-syntax-ns#"
   xmlns:svg="http://www.w3.org/2000/svg"
   xmlns="http://www.w3.org/2000/svg"
   viewBox="0 0 1100 231.25"
   height="231.25"
   width="1100"
   xml:space="preserve"
   version="1.1"
   id="svg2"><metadata
     id="metadata8"><rdf:RDF><cc:Work
         rdf:about=""><dc:format>image/svg+xml</dc:format><dc:type
           rdf:resource="http://purl.org/dc/dcmitype/StillImage" /><dc:title></dc:title></cc:Work></rdf:RDF></metadata><defs
     id="defs6"><clipPath
       id="clipPath20"
       clipPathUnits="userSpaceOnUse"><path
         id="path22"
         d="M 0,185 503,185 503,0 0,0 0,185 Z" /></clipPath></defs><g
     transform="matrix(1.25,0,0,-1.25,0,231.25)"
     id="g10"><g
       transform="matrix(2.1788693,0,0,2.1788693,335.05371,122.6145)"
       id="g12"><path
         id="path14"
         style="fill:#706d6e;fill-opacity:1;fill-rule:nonzero;stroke:none"
         d="m 0,0 0,-38.776 8.669,0 0,50.39 -11.998,0 -15.251,-37.428 -14.8,37.428 -12.487,0 0,-50.39 8.147,0 0,38.78 0.28,0 15.628,-38.78 6.148,0 L -0.28,0 0,0 Z" /></g><g
       transform="matrix(2.1788693,0,0,2.1788693,-119.15566,-109.63275)"
       id="g16"><g
         clip-path="url(#clipPath20)"
         id="g18"><path
           id="path24"
           style="fill:#706d6e;fill-opacity:1;fill-rule:nonzero;stroke:none"
           d="m 235.285,103.192 -8.495,0 0,-36.112 8.495,0 0,36.112 z m -4.161,15.384 c -1.398,0 -2.617,-0.476 -3.619,-1.419 -1.006,-0.946 -1.516,-2.137 -1.516,-3.542 0,-1.383 0.504,-2.552 1.5,-3.473 0.99,-0.918 2.213,-1.383 3.635,-1.383 1.422,0 2.65,0.465 3.652,1.382 1.008,0.922 1.519,2.091 1.519,3.474 0,1.356 -0.497,2.535 -1.478,3.504 -0.979,0.967 -2.222,1.457 -3.693,1.457" /><g
           transform="translate(260.6182,104.0625)"
           id="g26"><path
             id="path28"
             style="fill:#706d6e;fill-opacity:1;fill-rule:nonzero;stroke:none"
             d="m 0,0 c -3.897,0 -7.373,-0.836 -10.33,-2.483 -2.963,-1.651 -5.254,-4.008 -6.813,-7.006 -1.552,-2.99 -2.34,-6.483 -2.34,-10.378 0,-3.412 0.764,-6.543 2.274,-9.303 1.511,-2.764 3.65,-4.926 6.357,-6.426 2.703,-1.498 5.827,-2.258 9.286,-2.258 4.037,0 7.484,0.807 10.247,2.399 l 0.112,0.064 0,7.782 -0.357,-0.26 c -1.252,-0.912 -2.651,-1.64 -4.156,-2.164 -1.501,-0.524 -2.87,-0.789 -4.07,-0.789 -3.333,0 -6.009,1.043 -7.951,3.099 -1.947,2.059 -2.934,4.95 -2.934,8.588 0,3.661 1.029,6.626 3.058,8.814 2.022,2.182 4.703,3.289 7.967,3.289 2.792,0 5.513,-0.946 8.087,-2.813 l 0.356,-0.259 0,8.2 -0.115,0.065 C 7.709,-1.297 6.388,-0.849 4.748,-0.51 3.115,-0.171 1.518,0 0,0" /></g><g
           transform="translate(284.3252,96.9385)"
           id="g30"><path
             id="path32"
             style="fill:#706d6e;fill-opacity:1;fill-rule:nonzero;stroke:none"
             d="m 0,0 0,6.254 -8.495,0 0,-36.112 8.495,0 0,18.472 c 0,3.142 0.712,5.722 2.117,7.671 1.388,1.926 3.237,2.902 5.494,2.902 0.765,0 1.624,-0.126 2.554,-0.376 0.921,-0.248 1.588,-0.517 1.981,-0.801 l 0.357,-0.258 0,8.564 -0.138,0.059 C 11.574,6.711 10.455,6.881 9.039,6.881 6.905,6.881 4.994,6.195 3.358,4.844 1.922,3.657 0.884,2.03 0.09,0 L 0,0 Z" /></g><g
           transform="translate(316.1318,73.2402)"
           id="g34"><path
             id="path36"
             style="fill:#706d6e;fill-opacity:1;fill-rule:nonzero;stroke:none"
             d="m 0,0 c -3.12,0 -5.582,1.035 -7.316,3.074 -1.745,2.049 -2.628,4.969 -2.628,8.682 0,3.829 0.884,6.826 2.63,8.911 1.734,2.072 4.171,3.123 7.245,3.123 2.981,0 5.354,-1.004 7.055,-2.986 C 8.695,18.812 9.562,15.839 9.562,11.965 9.562,8.043 8.746,5.031 7.138,3.016 5.541,1.016 3.141,0 0,0 m 0.384,30.822 c -5.956,0 -10.686,-1.745 -14.057,-5.186 -3.37,-3.442 -5.08,-8.205 -5.08,-14.158 0,-5.656 1.669,-10.202 4.959,-13.515 3.29,-3.315 7.767,-4.994 13.307,-4.994 5.771,0 10.408,1.769 13.779,5.258 3.369,3.486 5.078,8.203 5.078,14.017 0,5.743 -1.603,10.325 -4.765,13.616 -3.164,3.293 -7.613,4.962 -13.221,4.962" /></g><g
           transform="translate(352.3926,104.0625)"
           id="g38"><path
             id="path40"
             style="fill:#706d6e;fill-opacity:1;fill-rule:nonzero;stroke:none"
             d="m 0,0 c -4.051,0 -7.401,-1.036 -9.961,-3.079 -2.575,-2.055 -3.881,-4.75 -3.881,-8.012 0,-1.695 0.282,-3.201 0.837,-4.478 0.558,-1.282 1.422,-2.41 2.57,-3.357 1.139,-0.939 2.897,-1.923 5.227,-2.924 1.958,-0.806 3.419,-1.488 4.347,-2.025 0.907,-0.527 1.551,-1.056 1.914,-1.572 0.353,-0.504 0.533,-1.194 0.533,-2.047 0,-2.426 -1.817,-3.606 -5.556,-3.606 -1.386,0 -2.968,0.289 -4.701,0.86 -1.734,0.57 -3.354,1.39 -4.814,2.441 l -0.357,0.256 0,-8.279 0.131,-0.061 c 1.217,-0.562 2.751,-1.035 4.559,-1.408 1.805,-0.373 3.444,-0.563 4.869,-0.563 4.396,0 7.935,1.041 10.518,3.096 2.599,2.069 3.916,4.828 3.916,8.203 0,2.434 -0.709,4.522 -2.107,6.205 -1.388,1.67 -3.797,3.203 -7.158,4.558 -2.677,1.074 -4.393,1.967 -5.1,2.651 -0.682,0.662 -1.028,1.597 -1.028,2.782 0,1.05 0.427,1.891 1.305,2.573 0.884,0.685 2.115,1.033 3.659,1.033 1.433,0 2.899,-0.226 4.357,-0.67 1.457,-0.443 2.736,-1.037 3.805,-1.764 l 0.351,-0.24 0,7.854 L 8.1,-1.515 C 7.114,-1.093 5.815,-0.731 4.237,-0.438 2.665,-0.147 1.239,0 0,0" /></g><g
           transform="translate(385.0107,73.2402)"
           id="g42"><path
             id="path44"
             style="fill:#706d6e;fill-opacity:1;fill-rule:nonzero;stroke:none"
             d="m 0,0 c -3.121,0 -5.582,1.035 -7.316,3.074 -1.745,2.049 -2.629,4.97 -2.629,8.682 0,3.829 0.884,6.826 2.63,8.911 1.735,2.072 4.172,3.123 7.245,3.123 2.982,0 5.355,-1.004 7.055,-2.986 C 8.694,18.812 9.562,15.839 9.562,11.965 9.562,8.043 8.746,5.031 7.138,3.016 5.541,1.016 3.14,0 0,0 m 0.383,30.822 c -5.955,0 -10.685,-1.745 -14.057,-5.186 -3.37,-3.442 -5.079,-8.205 -5.079,-14.158 0,-5.654 1.668,-10.202 4.958,-13.515 3.29,-3.315 7.768,-4.994 13.307,-4.994 5.772,0 10.408,1.769 13.779,5.258 3.37,3.486 5.078,8.203 5.078,14.017 0,5.743 -1.602,10.325 -4.764,13.616 -3.164,3.293 -7.613,4.962 -13.222,4.962" /></g><g
           transform="translate(448.6904,96.2646)"
           id="g46"><path
             id="path48"
             style="fill:#706d6e;fill-opacity:1;fill-rule:nonzero;stroke:none"
             d="m 0,0 0,6.928 -8.602,0 0,10.77 -0.291,-0.089 -8.08,-2.472 -0.159,-0.049 0,-8.16 -12.754,0 0,4.545 c 0,2.117 0.474,3.737 1.407,4.817 0.926,1.068 2.252,1.61 3.941,1.61 1.215,0 2.473,-0.286 3.738,-0.85 l 0.318,-0.142 0,7.296 -0.15,0.055 c -1.18,0.424 -2.787,0.638 -4.777,0.638 -2.51,0 -4.79,-0.546 -6.778,-1.628 -1.99,-1.084 -3.555,-2.631 -4.651,-4.598 -1.093,-1.965 -1.647,-4.234 -1.647,-6.745 l 0,-4.998 -5.991,0 0,-6.928 5.991,0 0,-29.185 8.599,0 0,29.185 12.754,0 0,-18.547 c 0,-7.638 3.603,-11.509 10.708,-11.509 1.168,0 2.397,0.137 3.652,0.405 1.277,0.275 2.147,0.55 2.659,0.843 l 0.113,0.067 0,6.992 -0.35,-0.232 c -0.466,-0.311 -1.047,-0.565 -1.729,-0.754 -0.685,-0.192 -1.256,-0.289 -1.698,-0.289 -1.665,0 -2.897,0.449 -3.661,1.334 -0.773,0.893 -1.164,2.455 -1.164,4.64 L -8.602,0 0,0 Z" /></g><path
           id="path50"
           style="fill:#f1511b;fill-opacity:1;fill-rule:nonzero;stroke:none"
           d="m 94.732,94.348 -39.961,0 0,39.961 39.961,0 0,-39.961 z" /><path
           id="path52"
           style="fill:#80cc28;fill-opacity:1;fill-rule:nonzero;stroke:none"
           d="m 138.853,94.348 -39.96,0 0,39.961 39.96,0 0,-39.961 z" /><path
           id="path54"
           style="fill:#00adef;fill-opacity:1;fill-rule:nonzero;stroke:none"
           d="m 94.731,50.211 -39.96,0 0,39.961 39.96,0 0,-39.961 z" /><path
           id="path56"
           style="fill:#fbbc09;fill-opacity:1;fill-rule:nonzero;stroke:none"
           d="m 138.853,50.211 -39.96,0 0,39.961 39.96,0 0,-39.961 z" /></g></g></g></svg>
