<?xml version="1.0" encoding="UTF-8" standalone="no"?>
<svg
   xmlns:dc="http://purl.org/dc/elements/1.1/"
   xmlns:cc="http://creativecommons.org/ns#"
   xmlns:rdf="http://www.w3.org/1999/02/22-rdf-syntax-ns#"
   xmlns:svg="http://www.w3.org/2000/svg"
   xmlns="http://www.w3.org/2000/svg"
   viewBox="0 0 661.25 206.25"
   height="206.25"
   width="661.25"
   xml:space="preserve"
   version="1.1"
   id="svg2"><metadata
     id="metadata8"><rdf:RDF><cc:Work
         rdf:about=""><dc:format>image/svg+xml</dc:format><dc:type
           rdf:resource="http://purl.org/dc/dcmitype/StillImage" /><dc:title></dc:title></cc:Work></rdf:RDF></metadata><defs
     id="defs6"><clipPath
       id="clipPath16"
       clipPathUnits="userSpaceOnUse"><path
         id="path18"
         d="M 0,165 529,165 529,0 0,0 0,165 Z" /></clipPath></defs><g
     transform="matrix(1.25,0,0,-1.25,0,206.25)"
     id="g10"><g
       id="g12"><g
         clip-path="url(#clipPath16)"
         id="g14"><g
           transform="translate(66.6929,63.252)"
           id="g20"><path
             id="path22"
             style="fill:#e03e7c;fill-opacity:1;fill-rule:nonzero;stroke:none"
             d="M 0,0 C 1.975,10.855 9.378,17.52 20.237,17.52 29.615,17.52 36.771,11.352 37.019,0 L 0,0 Z m -22.212,-10.367 c 0,-23.94 17.522,-44.177 45.41,-44.177 17.03,0 28.629,7.898 32.576,10.858 1.482,0.986 0.496,2.713 0.496,2.713 l -6.171,11.602 c 0,0 -0.74,1.728 -2.715,0.494 -3.455,-2.467 -12.339,-7.899 -22.705,-7.899 -12.587,0 -24.186,8.145 -25.42,22.952 l 56.515,0 c 0,0 1.975,0.248 2.222,2.224 0.247,1.726 0.247,3.947 0.247,5.428 0,22.457 -13.08,40.228 -37.513,40.228 C -4.443,33.81 -22.212,15.547 -22.212,-10.367" /></g><g
           transform="translate(155.0454,52.8848)"
           id="g24"><path
             id="path26"
             style="fill:#e03e7c;fill-opacity:1;fill-rule:nonzero;stroke:none"
             d="M 0,0 C 0,16.781 9.625,26.158 21.224,26.158 35.291,26.158 42.201,13.324 42.201,0 42.201,-18.758 31.837,-26.652 20.978,-26.652 8.639,-26.652 0,-16.042 0,0 m -21.225,0 c 0,-26.162 14.561,-44.177 37.513,-44.177 19.497,0 26.654,14.314 26.654,14.314 l 0.248,0 c 0,0 -0.248,-2.221 -0.248,-5.428 l 0,-4.936 c 0,-2.222 2.469,-1.978 2.469,-1.978 l 15.3,0 c 1.728,0 1.728,1.729 1.728,1.729 l 0,111.058 c 0,0 0,1.976 -2.221,1.976 l -15.795,0 c -2.222,0 -2.467,-1.976 -2.467,-1.976 l 0,-32.329 c 0,-2.715 0.245,-4.69 0.245,-4.69 l -0.245,0 c 0,0 -5.925,10.86 -24.434,10.86 C -5.43,44.177 -21.225,26.899 -21.225,0" /></g><g
           transform="translate(227.6035,52.8848)"
           id="g28"><path
             id="path30"
             style="fill:#4292c9;fill-opacity:1;fill-rule:nonzero;stroke:none"
             d="m 0,0 c 0,-24.434 18.014,-44.177 45.904,-44.177 22.705,0 34.797,13.822 34.797,13.822 l -8.144,14.806 c 0,0 -10.612,-10.86 -24.924,-10.86 -16.044,0 -26.409,12.342 -26.409,26.655 0,14.314 10.118,26.161 25.665,26.161 13.33,0 21.966,-9.132 21.966,-9.132 l 9.377,14.314 c 0,0 -10.365,12.588 -32.576,12.588 C 18.014,44.177 0,23.939 0,0" /></g><g
           transform="translate(336.1914,35.8555)"
           id="g32"><path
             id="path34"
             style="fill:#4292c9;fill-opacity:1;fill-rule:nonzero;stroke:none"
             d="m 0,0 c 0,11.844 17.525,13.327 28.135,13.327 l 3.705,0 0,-1.973 C 31.84,0.987 23.939,-10.859 12.834,-10.859 3.951,-10.859 0,-5.676 0,0 m -21.223,-0.987 c 0,-17.031 13.575,-26.408 28.627,-26.408 19.252,0 25.914,14.809 25.668,14.809 l 0.246,0 c 0,0 -0.246,-2.718 -0.246,-5.924 l 0,-6.91 19.498,0 0,53.06 c 0,21.473 -12.834,33.566 -35.045,33.566 -19.992,0 -33.072,-10.366 -33.072,-10.366 l 7.899,-15.055 c 0,0 11.105,8.144 23.199,8.144 9.379,0 16.289,-3.703 16.289,-14.808 l 0,-1.481 -2.715,0 c -14.066,0 -50.348,-1.726 -50.348,-28.627" /></g><g
           transform="translate(397.6465,21.0469)"
           id="g36"><path
             id="path38"
             style="fill:#4292c9;fill-opacity:1;fill-rule:nonzero;stroke:none"
             d="m 0,0 c 0,0 11.846,-12.339 32.822,-12.339 19.992,0 32.33,11.354 32.33,25.419 0,27.148 -41.215,25.666 -41.215,37.761 0,5.43 5.43,7.649 10.86,7.649 12.832,0 20.73,-7.404 20.73,-7.404 l 7.899,15.55 c 0,0 -9.377,9.625 -28.381,9.625 -18.266,0 -32.332,-9.132 -32.332,-24.927 0,-27.148 41.215,-25.42 41.215,-38.254 0,-4.937 -5.182,-7.651 -11.106,-7.651 -13.818,0 -22.951,9.38 -22.951,9.38 L 0,0 Z" /></g><g
           transform="translate(480.5684,41.5313)"
           id="g40"><path
             id="path42"
             style="fill:#4292c9;fill-opacity:1;fill-rule:nonzero;stroke:none"
             d="m 0,0 c 0,-28.382 23.443,-31.836 35.045,-31.836 3.949,0 6.418,0.494 6.418,0.494 l 0,18.511 c 0,0 -1.481,-0.249 -3.703,-0.249 -5.924,0 -16.783,1.975 -16.783,16.043 l 0,32.576 19.253,0 0,16.781 -19.253,0 0,31.344 -20.483,0 0,-31.344 -11.353,0 0,-16.781 L 0,35.539 0,0 Z" /></g><g
           transform="translate(86.6831,125.1953)"
           id="g44"><path
             id="path46"
             style="fill:#4292c9;fill-opacity:1;fill-rule:nonzero;stroke:none"
             d="m 0,0 0,-9.872 c 0,-1.233 -0.987,-2.221 -2.221,-2.468 l -0.247,0 c -16.782,-0.74 -31.836,-9.132 -41.956,-21.965 0,-0.246 -0.246,-0.246 -0.246,-0.493 -0.494,-0.493 -0.987,-0.74 -1.727,-0.74 -0.494,0 -0.989,0.247 -1.234,0.492 l -0.248,0 -7.404,4.937 -0.246,0.494 c -0.494,0.494 -0.987,0.986 -0.987,1.973 0,0.495 0.247,0.988 0.493,1.235 12.587,17.029 31.837,27.887 53.555,28.875 l 0.247,0 C -0.987,2.221 0,1.233 0,0" /></g><g
           transform="translate(86.6831,154.3164)"
           id="g48"><path
             id="path50"
             style="fill:#4292c9;fill-opacity:1;fill-rule:nonzero;stroke:none"
             d="m 0,0 0,-9.624 c 0,-1.235 -0.987,-2.468 -2.468,-2.468 -26.654,-0.987 -50.099,-14.561 -65.401,-35.539 -0.494,-0.74 -1.233,-0.987 -1.974,-0.987 -0.493,0 -0.988,0.247 -1.234,0.247 l -0.247,0.247 -7.405,4.936 c -0.74,0.493 -0.986,1.232 -0.986,1.974 0,0.492 0.246,0.987 0.493,1.234 17.276,25.172 45.165,41.461 76.754,42.203 C -0.987,2.223 0,1.233 0,0" /></g></g></g></g></svg>