<?xml version="1.0" encoding="UTF-8" standalone="no"?>
<svg
   xmlns:dc="http://purl.org/dc/elements/1.1/"
   xmlns:cc="http://creativecommons.org/ns#"
   xmlns:rdf="http://www.w3.org/1999/02/22-rdf-syntax-ns#"
   xmlns:svg="http://www.w3.org/2000/svg"
   xmlns="http://www.w3.org/2000/svg"
   viewBox="0 0 2500 375"
   height="375"
   width="2500"
   xml:space="preserve"
   version="1.1"
   id="svg2"><metadata
     id="metadata8"><rdf:RDF><cc:Work
         rdf:about=""><dc:format>image/svg+xml</dc:format><dc:type
           rdf:resource="http://purl.org/dc/dcmitype/StillImage" /><dc:title></dc:title></cc:Work></rdf:RDF></metadata><defs
     id="defs6"><clipPath
       id="clipPath16"
       clipPathUnits="userSpaceOnUse"><path
         id="path18"
         d="M 0,300 2000,300 2000,0 0,0 0,300 Z" /></clipPath></defs><g
     transform="matrix(1.25,0,0,-1.25,0,375)"
     id="g10"><g
       id="g12"><g
         clip-path="url(#clipPath16)"
         id="g14"><g
           transform="translate(357.1087,150.9777)"
           id="g20"><path
             id="path22"
             style="fill:#000000;fill-opacity:1;fill-rule:nonzero;stroke:none"
             d="m 0,0 c 7.122,0 12.891,1.806 17.307,5.417 4.413,3.611 6.621,9.129 6.621,16.554 0,7.424 -2.208,12.943 -6.621,16.554 C 12.891,42.138 7.122,43.944 0,43.944 l -35.215,0 L -35.215,0 0,0 Z m 2.258,52.672 c 4.815,0 9.179,-0.678 13.092,-2.032 3.913,-1.354 7.274,-3.362 10.083,-6.02 2.808,-2.659 4.966,-5.894 6.472,-9.706 1.504,-3.814 2.256,-8.127 2.256,-12.943 0,-4.815 -0.752,-9.13 -2.256,-12.943 C 30.399,5.215 28.241,1.979 25.433,-0.677 22.624,-3.338 19.263,-5.343 15.35,-6.698 11.437,-8.052 7.073,-8.729 2.258,-8.729 l -37.473,0 0,-46.049 -10.233,0 0,107.45 47.706,0 z" /></g><g
           transform="translate(483.0689,203.6501)"
           id="g24"><path
             id="path26"
             style="fill:#000000;fill-opacity:1;fill-rule:nonzero;stroke:none"
             d="m 0,0 0,-8.729 -63.959,0 0,-38.828 59.896,0 0,-8.727 -59.896,0 0,-42.438 64.711,0 0,-8.729 -74.944,0 L -74.192,0 0,0 Z" /></g><g
           transform="translate(548.9818,152.6328)"
           id="g28"><path
             id="path30"
             style="fill:#000000;fill-opacity:1;fill-rule:nonzero;stroke:none"
             d="m 0,0 c 3.109,0 6.069,0.474 8.879,1.43 2.808,0.952 5.268,2.332 7.375,4.138 2.106,1.805 3.785,3.988 5.041,6.547 1.253,2.557 1.881,5.493 1.881,8.803 0,6.622 -1.907,11.837 -5.718,15.652 C 13.643,40.381 7.826,42.288 0,42.288 l -38.224,0 L -38.224,0 0,0 Z m 0.753,51.017 c 4.413,0 8.601,-0.554 12.566,-1.656 3.962,-1.105 7.423,-2.784 10.384,-5.042 2.958,-2.257 5.317,-5.167 7.073,-8.729 1.754,-3.561 2.633,-7.749 2.633,-12.565 0,-6.824 -1.756,-12.742 -5.267,-17.759 -3.513,-5.017 -8.728,-8.226 -15.651,-9.63 l 0,-0.302 c 3.511,-0.502 6.419,-1.43 8.729,-2.783 2.306,-1.354 4.187,-3.085 5.643,-5.192 1.453,-2.107 2.506,-4.54 3.161,-7.298 0.651,-2.762 1.077,-5.745 1.278,-8.954 0.099,-1.806 0.2,-4.015 0.301,-6.622 0.099,-2.611 0.302,-5.244 0.602,-7.901 0.301,-2.66 0.777,-5.168 1.43,-7.524 0.651,-2.358 1.529,-4.191 2.634,-5.494 l -11.287,0 c -0.602,1.003 -1.08,2.232 -1.43,3.688 -0.353,1.453 -0.602,2.957 -0.753,4.515 -0.149,1.553 -0.277,3.085 -0.375,4.589 -0.102,1.505 -0.203,2.809 -0.302,3.913 -0.202,3.812 -0.526,7.6 -0.978,11.362 -0.452,3.762 -1.406,7.122 -2.859,10.083 -1.456,2.958 -3.563,5.341 -6.321,7.147 -2.76,1.806 -6.546,2.609 -11.362,2.408 l -38.826,0 0,-47.705 -10.234,0 0,107.451 49.211,0 z" /></g><g
           transform="translate(648.7565,150.9777)"
           id="g32"><path
             id="path34"
             style="fill:#000000;fill-opacity:1;fill-rule:nonzero;stroke:none"
             d="m 0,0 c 7.122,0 12.891,1.806 17.307,5.417 4.413,3.611 6.621,9.129 6.621,16.554 0,7.424 -2.208,12.943 -6.621,16.554 C 12.891,42.138 7.122,43.944 0,43.944 l -35.215,0 L -35.215,0 0,0 Z m 2.258,52.672 c 4.815,0 9.179,-0.678 13.092,-2.032 3.913,-1.354 7.274,-3.362 10.083,-6.02 2.808,-2.659 4.966,-5.894 6.472,-9.706 1.504,-3.814 2.256,-8.127 2.256,-12.943 0,-4.815 -0.752,-9.13 -2.256,-12.943 C 30.399,5.215 28.241,1.979 25.433,-0.677 22.624,-3.338 19.263,-5.343 15.35,-6.698 11.437,-8.052 7.073,-8.729 2.258,-8.729 l -37.473,0 0,-46.049 -10.233,0 0,107.45 47.706,0 z" /></g><g
           transform="translate(774.7167,203.6501)"
           id="g36"><path
             id="path38"
             style="fill:#000000;fill-opacity:1;fill-rule:nonzero;stroke:none"
             d="m 0,0 0,-8.729 -63.959,0 0,-38.828 59.896,0 0,-8.727 -59.896,0 0,-42.438 64.711,0 0,-8.729 -74.944,0 L -74.192,0 0,0 Z" /></g><g
           transform="translate(865.7617,203.6501)"
           id="g40"><path
             id="path42"
             style="fill:#000000;fill-opacity:1;fill-rule:nonzero;stroke:none"
             d="m 0,0 0,-8.729 -37.472,0 0,-98.722 -10.234,0 0,98.722 -37.321,0 0,8.729 L 0,0 Z" /></g><g
           transform="translate(887.4331,203.6501)"
           id="g44"><path
             id="path46"
             style="fill:#000000;fill-opacity:1;fill-rule:nonzero;stroke:none"
             d="m 0,0 0,-66.518 c 0,-6.222 0.7,-11.512 2.107,-15.875 1.404,-4.365 3.461,-7.927 6.17,-10.685 2.708,-2.761 6.019,-4.768 9.932,-6.02 3.913,-1.256 8.326,-1.882 13.244,-1.882 5.015,0 9.481,0.626 13.393,1.882 3.913,1.252 7.224,3.259 9.932,6.02 2.71,2.758 4.765,6.32 6.171,10.685 1.404,4.363 2.107,9.653 2.107,15.875 l 0,66.518 10.233,0 0,-68.775 c 0,-5.518 -0.778,-10.76 -2.332,-15.725 -1.557,-4.967 -4.014,-9.307 -7.374,-13.019 -3.363,-3.712 -7.676,-6.648 -12.943,-8.803 -5.267,-2.157 -11.662,-3.236 -19.187,-3.236 -7.426,0 -13.77,1.079 -19.038,3.236 -5.267,2.155 -9.582,5.091 -12.942,8.803 -3.362,3.712 -5.82,8.052 -7.374,13.019 -1.557,4.965 -2.332,10.207 -2.332,15.725 L -10.233,0 0,0 Z" /></g><g
           transform="translate(1041.2332,138.3364)"
           id="g48"><path
             id="path50"
             style="fill:#000000;fill-opacity:1;fill-rule:nonzero;stroke:none"
             d="M 0,0 -20.768,55.079 -42.287,0 0,0 Z m -14.598,65.314 42.138,-107.451 -10.986,0 -13.092,33.409 -48.91,0 -12.942,-33.409 -10.835,0 43.191,107.451 11.436,0 z" /></g><g
           transform="translate(1091.1962,203.6501)"
           id="g52"><path
             id="path54"
             style="fill:#000000;fill-opacity:1;fill-rule:nonzero;stroke:none"
             d="m 0,0 0,-98.722 60.196,0 0,-8.729 -70.429,0 L -10.233,0 0,0 Z" /></g><g
           transform="translate(1218.6592,203.6501)"
           id="g56"><path
             id="path58"
             style="fill:#000000;fill-opacity:1;fill-rule:nonzero;stroke:none"
             d="m 0,0 0,-98.722 60.196,0 0,-8.729 -70.429,0 L -10.233,0 0,0 Z" /></g><g
           transform="translate(1365.8374,203.6501)"
           id="g60"><path
             id="path62"
             style="fill:#000000;fill-opacity:1;fill-rule:nonzero;stroke:none"
             d="m 0,0 0,-8.729 -63.958,0 0,-38.828 59.895,0 0,-8.727 -59.895,0 0,-42.438 64.711,0 0,-8.729 -74.945,0 L -74.192,0 0,0 Z" /></g><g
           transform="translate(1440.7803,138.3364)"
           id="g64"><path
             id="path66"
             style="fill:#000000;fill-opacity:1;fill-rule:nonzero;stroke:none"
             d="M 0,0 -20.768,55.079 -42.287,0 0,0 Z m -14.598,65.314 42.138,-107.451 -10.986,0 -13.092,33.409 -48.91,0 -12.943,-33.409 -10.835,0 43.192,107.451 11.436,0 z" /></g><g
           transform="translate(1528.9686,152.6328)"
           id="g68"><path
             id="path70"
             style="fill:#000000;fill-opacity:1;fill-rule:nonzero;stroke:none"
             d="m 0,0 c 3.108,0 6.068,0.474 8.878,1.43 2.808,0.952 5.268,2.332 7.375,4.138 2.107,1.805 3.786,3.988 5.041,6.547 1.253,2.557 1.882,5.493 1.882,8.803 0,6.622 -1.908,11.837 -5.72,15.652 C 13.642,40.381 7.825,42.288 0,42.288 l -38.225,0 L -38.225,0 0,0 Z m 0.751,51.017 c 4.415,0 8.603,-0.554 12.567,-1.656 3.961,-1.105 7.424,-2.784 10.384,-5.042 2.957,-2.257 5.317,-5.167 7.072,-8.729 1.756,-3.561 2.635,-7.749 2.635,-12.565 0,-6.824 -1.757,-12.742 -5.268,-17.759 -3.512,-5.017 -8.729,-8.226 -15.65,-9.63 l 0,-0.302 c 3.509,-0.502 6.419,-1.43 8.727,-2.783 2.308,-1.354 4.188,-3.085 5.644,-5.192 1.454,-2.107 2.507,-4.54 3.161,-7.298 0.651,-2.762 1.077,-5.745 1.279,-8.954 0.099,-1.806 0.199,-4.015 0.301,-6.622 0.098,-2.611 0.3,-5.244 0.601,-7.901 0.301,-2.66 0.776,-5.168 1.43,-7.524 0.651,-2.358 1.529,-4.191 2.633,-5.494 l -11.285,0 c -0.603,1.003 -1.081,2.232 -1.43,3.688 -0.354,1.453 -0.603,2.957 -0.754,4.515 -0.15,1.553 -0.276,3.085 -0.375,4.589 -0.102,1.505 -0.203,2.809 -0.301,3.913 -0.203,3.812 -0.527,7.6 -0.979,11.362 -0.451,3.762 -1.405,7.122 -2.859,10.083 -1.455,2.958 -3.562,5.341 -6.321,7.147 -2.76,1.806 -6.546,2.609 -11.362,2.408 l -38.826,0 0,-47.705 -10.233,0 0,107.451 49.209,0 z" /></g><g
           transform="translate(1594.5803,203.6501)"
           id="g72"><path
             id="path74"
             style="fill:#000000;fill-opacity:1;fill-rule:nonzero;stroke:none"
             d="m 0,0 62.604,-90.897 0.302,0 0,90.897 10.233,0 0,-107.451 -11.437,0 -62.604,90.897 -0.301,0 0,-90.897 -10.234,0 L -11.437,0 0,0 Z" /></g><path
           id="path76"
           style="fill:#000000;fill-opacity:1;fill-rule:nonzero;stroke:none"
           d="m 1702.634,96.199 -10.235,0 0,107.451 10.235,0 0,-107.451 z" /><g
           transform="translate(1738.7479,203.6501)"
           id="g78"><path
             id="path80"
             style="fill:#000000;fill-opacity:1;fill-rule:nonzero;stroke:none"
             d="m 0,0 62.604,-90.897 0.302,0 0,90.897 10.233,0 0,-107.451 -11.437,0 -62.604,90.897 -0.301,0 0,-90.897 -10.234,0 L -11.437,0 0,0 Z" /></g><g
           transform="translate(1920.2405,96.1993)"
           id="g82"><path
             id="path84"
             style="fill:#000000;fill-opacity:1;fill-rule:nonzero;stroke:none"
             d="m 0,0 -1.354,19.564 -0.301,0 c -1.806,-3.815 -4.039,-7.099 -6.696,-9.857 -2.66,-2.761 -5.594,-5.019 -8.804,-6.773 -3.213,-1.757 -6.648,-3.033 -10.309,-3.838 -3.663,-0.801 -7.45,-1.203 -11.362,-1.203 -8.428,0 -15.827,1.53 -22.198,4.59 -6.372,3.059 -11.663,7.148 -15.877,12.265 -4.214,5.116 -7.373,11.035 -9.48,17.757 -2.107,6.721 -3.161,13.794 -3.161,21.219 0,7.424 1.054,14.497 3.161,21.22 2.107,6.72 5.266,12.665 9.48,17.833 4.214,5.166 9.505,9.279 15.877,12.34 6.371,3.059 13.77,4.591 22.198,4.591 5.618,0 10.934,-0.753 15.951,-2.257 5.016,-1.506 9.482,-3.764 13.395,-6.773 3.912,-3.01 7.224,-6.722 9.932,-11.137 2.709,-4.416 4.565,-9.582 5.569,-15.499 l -10.235,0 c -0.299,3.107 -1.329,6.244 -3.085,9.405 -1.755,3.16 -4.115,6.043 -7.072,8.653 -2.96,2.607 -6.497,4.74 -10.611,6.395 -4.115,1.657 -8.727,2.485 -13.844,2.485 -7.126,0 -13.244,-1.356 -18.36,-4.064 -5.117,-2.709 -9.307,-6.298 -12.567,-10.761 -3.261,-4.465 -5.668,-9.506 -7.222,-15.124 -1.557,-5.619 -2.334,-11.388 -2.334,-17.307 0,-5.818 0.777,-11.564 2.334,-17.23 1.554,-5.67 3.961,-10.737 7.222,-15.2 3.26,-4.465 7.45,-8.05 12.567,-10.76 5.116,-2.709 11.234,-4.063 18.36,-4.063 5.919,0 11.211,0.978 15.877,2.935 4.665,1.956 8.601,4.688 11.814,8.202 3.209,3.51 5.618,7.675 7.222,12.491 1.605,4.815 2.357,10.083 2.258,15.8 l -36.569,0 0,8.729 45.599,0 L 7.375,0 0,0 Z" /></g><g
           transform="translate(153.6414,116.4189)"
           id="g86"><path
             id="path88"
             style="fill:#000000;fill-opacity:1;fill-rule:nonzero;stroke:none"
             d="m 0,0 c -18.546,0 -33.581,15.035 -33.581,33.581 0,18.547 15.035,33.582 33.581,33.582 18.546,0 33.581,-15.035 33.581,-33.582 C 33.581,15.035 18.546,0 0,0 m 81.257,38.23 c 0,10.598 -8.591,19.189 -19.19,19.189 l -4.517,0 16.763,16.764 -20.143,20.143 c -7.494,7.494 -19.644,7.494 -27.138,0 l -3.194,-3.195 0,23.707 0,0 -28.487,0 c -10.598,0 -19.189,-8.591 -19.189,-19.189 l 0,-0.001 0,-4.517 -16.763,16.764 -20.143,-20.143 c -7.494,-7.494 -7.494,-19.644 0,-27.138 l 3.194,-3.195 -23.707,0 0,-28.486 c 0,-10.598 8.591,-19.19 19.19,-19.19 l 4.517,0 -16.763,-16.763 20.143,-20.143 c 7.494,-7.494 19.644,-7.494 27.138,0 l 3.194,3.194 0,-23.706 0,-0.001 28.487,0 c 10.598,0 19.189,8.591 19.189,19.189 l 0,10e-4 0,4.517 16.763,-16.763 20.143,20.143 c 7.494,7.494 7.494,19.644 0,27.138 l -3.194,3.194 23.707,0 0,28.487 z" /></g></g></g></g></svg>